<svg 
  xmlns="http://www.w3.org/2000/svg"
  width="100"
  height="59"
  viewBox="0 0 434 256"
>
  <path
    fill="#D66E7A"
    d="M367.907,250.522 L370.506,255.000 L371.000,255.000 L371.000,256.000 L364.000,256.000 L361.000,256.000 L83.1000,256.000 L77.1000,256.000 L73.1000,256.000 L73.1000,255.000 L74.649,255.000 L76.452,251.878 L9.1000,136.780 L9.1000,256.000 L-0.000,256.000 L-0.000,-0.000 L9.1000,-0.000 L9.1000,109.026 L73.1000,-0.000 L83.1000,-0.000 L22.387,107.425 L208.1000,-0.000 L211.1000,-0.000 L217.013,-0.000 L222.000,-0.000 L225.987,-0.000 L235.000,-0.000 L421.113,107.553 L360.000,0.1000 L361.000,0.1000 L361.000,-0.000 L371.000,-0.000 L371.000,0.1000 L434.000,110.000 L434.000,115.000 L434.000,117.000 L434.000,120.000 L434.000,125.1000 L434.000,127.000 L434.000,132.000 L434.000,135.1000 L367.907,250.522 ZM84.605,246.000 L208.387,246.000 L22.714,138.802 L84.605,246.000 ZM201.591,230.529 L142.729,128.000 L24.005,128.000 L201.591,230.529 ZM24.005,117.1000 L142.271,117.1000 L203.514,14.360 L24.005,117.1000 ZM217.013,8.628 L151.141,122.586 L217.013,237.325 L217.013,8.628 ZM222.874,245.988 L221.986,245.988 L221.986,245.989 L221.967,246.000 L222.881,246.000 L222.874,245.988 ZM358.972,246.000 L420.192,139.964 L236.355,246.000 L358.972,246.000 ZM225.987,10.417 L225.987,232.777 L289.996,121.912 L225.987,10.417 ZM237.365,12.552 L298.646,117.000 L418.401,117.000 L237.365,12.552 ZM298.605,127.000 L236.699,234.224 L421.909,127.000 L298.605,127.000 Z"
  />
</svg>