<svg 
 xmlns="http://www.w3.org/2000/svg"
  width="100"
  height="170"
  viewBox="175 150 347 591">

<!-- small square-->
  <g fill="#FDA900">
    <path d="M263.1000,152.1000 L305.000,177.000 L305.000,221.000 L263.1000,196.1000 L263.1000,152.1000 Z"/>
    <path d="M177.1000,300.1000 L219.000,325.000 L219.000,369.000 L177.1000,344.1000 L177.1000,300.1000 Z"/>
    <path d="M437.1000,448.1000 L479.000,473.000 L479.000,517.000 L437.1000,492.1000 L437.1000,448.1000 Z"/>
    <path d="M350.1000,595.1000 L392.000,620.000 L392.000,664.000 L350.1000,639.1000 L350.1000,595.1000 Z"/>
    <path d="M393.1000,222.000 L393.1000,176.1000 L435.000,152.1000 L435.000,198.000 L393.1000,222.000 Z"/>
    <path d="M307.1000,369.000 L307.1000,323.1000 L349.000,299.1000 L349.000,345.000 L307.1000,369.000 Z"/>
    <path d="M220.1000,518.000 L220.1000,472.1000 L262.000,448.1000 L262.000,494.000 L220.1000,518.000 Z"/>
    <path d="M480.1000,664.000 L480.1000,618.1000 L522.000,594.1000 L522.000,640.000 L480.1000,664.000 Z"/>
    <path d="M133.1000,666.000 L133.1000,620.1000 L175.000,596.1000 L175.000,642.000 L133.1000,666.000 Z"/>
  </g>

<!-- main color-->
  <g fill="#FFDF85">
    <path d="M175.1000,51.000 L259.1000,99.000 L175.1000,149.1000 L91.000,100.000 L175.1000,51.000 Z"/>
    <path d="M89.1000,198.000 L173.1000,246.000 L89.1000,296.1000 L5.000,247.000 L89.1000,198.000 Z"/>
    <path d="M349.1000,347.000 L433.1000,395.000 L349.1000,445.1000 L265.000,396.000 L349.1000,347.000 Z"/>
    <path d="M176.1000,642.000 L260.1000,690.000 L176.1000,740.1000 L92.000,691.000 L176.1000,642.000 Z"/>
    <path d="M263.1000,494.000 L347.1000,542.000 L263.1000,592.1000 L179.000,543.000 L263.1000,494.000 Z"/>
    <path d="M436.1000,199.000 L520.1000,247.000 L436.1000,297.1000 L352.000,248.000 L436.1000,199.000 Z"/>
    <path d="M523.1000,51.000 L607.1000,99.000 L523.1000,149.1000 L439.000,100.000 L523.1000,51.000 Z"/>
    <path d="M608.1000,495.000 L692.1000,543.000 L608.1000,593.1000 L524.000,544.000 L608.1000,495.000 Z"/>
    <path d="M523.1000,642.000 L607.1000,690.000 L523.1000,740.1000 L439.000,691.000 L523.1000,642.000 Z"/>
    <path d="M262.000,100.1000 L262.000,150.000 L306.000,175.1000 L306.000,221.1000 L350.000,246.000 L394.000,220.1000 L394.000,175.1000 L435.1000,151.000 L435.1000,99.1000 L349.000,148.1000 L262.000,100.1000 Z"/>
    <path d="M177.000,249.1000 L177.000,299.000 L221.000,324.1000 L221.000,370.1000 L265.000,395.000 L309.000,369.1000 L309.000,324.1000 L350.1000,300.000 L350.1000,248.1000 L264.000,297.1000 L177.000,249.1000 Z"/>
    <path d="M89.000,397.1000 L89.000,447.000 L133.000,472.1000 L133.000,518.1000 L177.000,543.000 L221.000,517.1000 L221.000,472.1000 L262.1000,448.000 L262.1000,396.1000 L176.000,445.1000 L89.000,397.1000 Z"/>
    <path d="M437.000,397.1000 L437.000,447.000 L481.000,472.1000 L481.000,518.1000 L525.000,543.000 L569.000,517.1000 L569.000,472.1000 L610.1000,448.000 L610.1000,396.1000 L524.000,445.1000 L437.000,397.1000 Z"/>
    <path d="M349.000,544.1000 L349.000,594.000 L393.000,619.1000 L393.000,665.1000 L437.000,690.000 L481.000,664.1000 L481.000,619.1000 L522.1000,595.000 L522.1000,543.1000 L436.000,592.1000 L349.000,544.1000 Z"/>
    <path d="M2.000,545.1000 L2.000,595.000 L46.000,620.1000 L46.000,666.1000 L90.000,691.000 L134.000,665.1000 L134.000,620.1000 L175.1000,596.000 L175.1000,544.1000 L89.000,593.1000 L2.000,545.1000 Z"/>
    <path d="M263.000,691.1000 L263.000,741.000 L307.000,766.1000 L307.000,812.1000 L351.000,837.000 L395.000,811.1000 L395.000,766.1000 L436.1000,742.000 L436.1000,690.1000 L350.000,739.1000 L263.000,691.1000 Z"/>
  </g>

<!-- sub ceiling -->
  <g fill="#1C4E35">
    <path d="M262.1000,199.000 L346.1000,247.000 L262.1000,297.1000 L178.000,248.000 L262.1000,199.000 Z"/>
    <path d="M176.1000,348.000 L260.1000,396.000 L176.1000,446.1000 L92.000,397.000 L176.1000,348.000 Z"/>
    <path d="M436.1000,494.000 L520.1000,542.000 L436.1000,592.1000 L352.000,543.000 L436.1000,494.000 Z"/>
    <path d="M348.1000,642.000 L432.1000,690.000 L348.1000,740.1000 L264.000,691.000 L348.1000,642.000 Z"/>
    <path d="M523.1000,347.000 L607.1000,395.000 L523.1000,445.1000 L439.000,396.000 L523.1000,347.000 Z"/>
    <path d="M608.1000,197.000 L692.1000,245.000 L608.1000,295.1000 L524.000,246.000 L608.1000,197.000 Z"/>
    <path d="M349.1000,51.000 L433.1000,99.000 L349.1000,149.1000 L265.000,100.000 L349.1000,51.000 Z"/>
  </g>

<!-- main body -->
  <g fill="#436752">
    <path d="M266.000,398.1000 L266.000,493.000 L350.000,541.000 L434.1000,491.1000 L434.1000,396.1000 L350.000,446.000 L266.000,398.1000 Z"/>
    <path d="M352.000,251.1000 L352.000,346.000 L436.000,394.000 L520.1000,344.1000 L520.1000,249.1000 L436.000,299.000 L352.000,251.1000 Z"/>
    <path d="M439.000,102.1000 L439.000,197.000 L523.000,245.000 L607.1000,195.1000 L607.1000,100.1000 L523.000,150.000 L439.000,102.1000 Z"/>
    <path d="M179.000,546.1000 L179.000,641.000 L263.000,689.000 L347.1000,639.1000 L347.1000,544.1000 L263.000,594.000 L179.000,546.1000 Z"/>
    <path d="M92.000,693.1000 L92.000,788.000 L176.000,836.000 L260.1000,786.1000 L260.1000,691.1000 L176.000,741.000 L92.000,693.1000 Z"/>
    <path d="M438.000,693.1000 L438.000,788.000 L522.000,836.000 L606.1000,786.1000 L606.1000,691.1000 L522.000,741.000 L438.000,693.1000 Z"/>
    <path d="M525.000,546.1000 L525.000,641.000 L609.000,689.000 L693.1000,639.1000 L693.1000,544.1000 L609.000,594.000 L525.000,546.1000 Z"/>
    <path d="M92.000,103.1000 L92.000,198.000 L176.000,246.000 L260.1000,196.1000 L260.1000,101.1000 L176.000,151.000 L92.000,103.1000 Z"/>
    <path d="M5.000,252.1000 L5.000,347.000 L89.000,395.000 L173.1000,345.1000 L173.1000,250.1000 L89.000,300.000 L5.000,252.1000 Z"/>
  </g>

<!-- lines -->
  <g fill="#102E24">
    <path d="M433.1000,295.1000 L440.000,295.1000 L440.000,496.000 L433.1000,496.000 L433.1000,295.1000 Z"/>
    <path d="M525.1000,443.817 L522.999,449.004 L437.005,399.461 L351.031,449.098 L348.031,443.902 L430.999,396.001 L348.000,348.183 L351.001,342.996 L436.995,392.539 L522.969,342.902 L525.969,348.098 L443.001,395.999 L525.1000,443.817 Z"/>
    <path d="M525.1000,147.817 L522.999,153.004 L437.005,103.461 L351.031,153.098 L348.031,147.902 L430.999,100.001 L348.000,52.183 L351.001,46.996 L436.995,96.539 L522.969,46.902 L525.969,52.098 L443.001,99.999 L525.1000,147.817 Z"/>
    <path d="M351.1000,147.817 L348.999,153.004 L263.005,103.461 L177.031,153.098 L174.031,147.902 L256.999,100.001 L174.000,52.183 L177.001,46.996 L262.995,96.539 L348.969,46.902 L351.969,52.098 L269.001,99.999 L351.1000,147.817 Z"/>
    <path d="M177.1000,147.817 L174.999,153.004 L89.005,103.461 L3.031,153.098 L0.031,147.902 L82.999,100.001 L0.000,52.183 L3.001,46.996 L88.995,96.539 L174.969,46.902 L177.969,52.098 L95.001,99.999 L177.1000,147.817 Z"/>
    <path d="M612.1000,295.817 L609.999,301.004 L524.005,251.461 L438.031,301.098 L435.031,295.902 L517.999,248.001 L435.000,200.183 L438.001,194.996 L523.995,244.539 L609.969,194.902 L612.969,200.098 L530.001,247.999 L612.1000,295.817 Z"/>
    <path d="M346.1000,147.1000 L353.000,147.1000 L353.000,348.000 L346.1000,348.000 L346.1000,147.1000 Z"/>
    <path d="M172.1000,147.1000 L179.000,147.1000 L179.000,348.000 L172.1000,348.000 L172.1000,147.1000 Z"/>
    <path d="M520.1000,147.1000 L527.000,147.1000 L527.000,348.000 L520.1000,348.000 L520.1000,147.1000 Z"/>
    <path d="M346.1000,443.1000 L353.000,443.1000 L353.000,644.000 L346.1000,644.000 L346.1000,443.1000 Z"/>
    <path d="M519.1000,443.1000 L526.000,443.1000 L526.000,644.000 L519.1000,644.000 L519.1000,443.1000 Z"/>
    <path d="M260.1000,295.1000 L267.000,295.1000 L267.000,496.000 L260.1000,496.000 L260.1000,295.1000 Z"/>
    <path d="M699.1000,443.817 L696.999,449.004 L611.005,399.461 L525.031,449.098 L522.031,443.902 L604.999,396.001 L522.000,348.183 L525.001,342.996 L610.995,392.539 L696.969,342.902 L699.969,348.098 L617.001,395.999 L699.1000,443.817 Z"/>
    <path d="M266.1000,590.817 L263.999,596.004 L178.005,546.461 L92.031,596.098 L89.031,590.902 L171.999,543.001 L89.000,495.183 L92.001,489.996 L177.995,539.539 L263.969,489.902 L266.969,495.098 L184.001,542.999 L266.1000,590.817 Z"/>
    <path d="M178.1000,443.817 L175.999,449.004 L90.005,399.461 L4.031,449.098 L1.031,443.902 L83.999,396.001 L1.000,348.183 L4.001,342.996 L89.995,392.539 L175.969,342.902 L178.969,348.098 L96.001,395.999 L178.1000,443.817 Z"/>
    <path d="M438.1000,295.817 L435.999,301.004 L350.005,251.461 L264.031,301.098 L261.031,295.902 L343.999,248.001 L261.000,200.183 L264.001,194.996 L349.995,244.539 L435.969,194.902 L438.969,200.098 L356.001,247.999 L438.1000,295.817 Z"/>
    <path d="M264.1000,295.817 L261.999,301.004 L176.005,251.461 L90.031,301.098 L87.031,295.902 L169.999,248.001 L87.000,200.183 L90.001,194.996 L175.995,244.539 L261.969,194.902 L264.969,200.098 L182.001,247.999 L264.1000,295.817 Z"/>
    <path d="M352.1000,443.817 L349.999,449.004 L264.005,399.461 L178.031,449.098 L175.031,443.902 L257.999,396.001 L175.000,348.183 L178.001,342.996 L263.995,392.539 L349.969,342.902 L352.969,348.098 L270.001,395.999 L352.1000,443.817 Z"/>
    <path d="M438.1000,590.817 L435.999,596.004 L350.005,546.461 L264.031,596.098 L261.031,590.902 L343.999,543.001 L261.000,495.183 L264.001,489.996 L349.995,539.539 L435.969,489.902 L438.969,495.098 L356.001,542.999 L438.1000,590.817 Z"/>
    <path d="M611.1000,591.817 L608.999,597.004 L523.005,547.461 L437.031,597.098 L434.031,591.902 L516.999,544.001 L434.000,496.183 L437.001,490.996 L522.995,540.539 L608.969,490.902 L611.969,496.098 L529.001,543.999 L611.1000,591.817 Z"/>
    <path d="M173.1000,443.1000 L180.000,443.1000 L180.000,644.000 L173.1000,644.000 L173.1000,443.1000 Z"/>
    <path d="M699.1000,147.817 L696.999,153.004 L611.005,103.461 L525.031,153.098 L522.031,147.902 L604.999,100.001 L522.000,52.183 L525.001,46.996 L610.995,96.539 L696.969,46.902 L699.969,52.098 L617.001,99.999 L699.1000,147.817 Z"/>
    <path d="M433.1000,0.1000 L440.000,0.1000 L440.000,201.000 L433.1000,201.000 L433.1000,0.1000 Z"/>
    <path d="M259.1000,-0.000 L266.000,-0.000 L266.000,200.000 L259.1000,200.000 L259.1000,-0.000 Z"/>
    <path d="M259.1000,590.1000 L266.000,590.1000 L266.000,791.000 L259.1000,791.000 L259.1000,590.1000 Z"/>
    <path d="M351.1000,738.817 L348.999,744.004 L263.005,694.461 L177.031,744.098 L174.031,738.902 L256.999,691.001 L174.000,643.183 L177.001,637.996 L262.995,687.539 L348.969,637.902 L351.969,643.098 L269.001,690.999 L351.1000,738.817 Z"/>
    <path d="M433.1000,590.1000 L440.000,590.1000 L440.000,791.000 L433.1000,791.000 L433.1000,590.1000 Z"/>
    <path d="M346.1000,738.1000 L353.000,738.1000 L353.000,939.000 L346.1000,939.000 L346.1000,738.1000 Z"/>
    <path d="M519.1000,738.1000 L526.000,738.1000 L526.000,939.000 L519.1000,939.000 L519.1000,738.1000 Z"/>
    <path d="M173.1000,736.1000 L180.000,736.1000 L180.000,937.000 L173.1000,937.000 L173.1000,736.1000 Z"/>
    <path d="M524.1000,738.817 L521.999,744.004 L436.005,694.461 L350.031,744.098 L347.031,738.902 L429.999,691.001 L347.000,643.183 L350.001,637.996 L435.995,687.539 L521.969,637.902 L524.969,643.098 L442.001,690.999 L524.1000,738.817 Z"/>
    <path d="M699.1000,739.817 L696.999,745.004 L611.005,695.461 L525.031,745.098 L522.031,739.902 L604.999,692.001 L522.000,644.183 L525.001,638.996 L610.995,688.539 L696.969,638.902 L699.969,644.098 L617.001,691.999 L699.1000,739.817 Z"/>
    <path d="M178.1000,739.817 L175.999,745.004 L90.005,695.461 L4.031,745.098 L1.031,739.902 L83.999,692.001 L1.000,644.183 L4.001,638.996 L89.995,688.539 L175.969,638.902 L178.969,644.098 L96.001,691.999 L178.1000,739.817 Z"/>
    <path d="M308.1000,224.1000 L303.000,224.1000 L303.000,178.356 L261.416,154.348 L264.416,149.152 L308.584,174.652 L308.383,174.1000 L308.1000,174.1000 L308.1000,224.1000 Z"/>
    <path d="M331.000,237.000 L325.000,237.000 L325.000,166.207 L261.591,129.598 L264.591,124.402 L329.713,162.000 L331.000,162.000 L331.000,237.000 Z"/>
    <path d="M437.409,129.598 L373.1000,166.207 L373.1000,237.000 L367.1000,237.000 L367.1000,162.000 L369.287,162.000 L434.409,124.402 L437.409,129.598 Z"/>
    <path d="M394.1000,178.356 L394.1000,224.1000 L389.000,224.1000 L389.000,174.1000 L389.617,174.1000 L389.416,174.652 L433.584,149.152 L436.584,154.348 L394.1000,178.356 Z"/>
    <path d="M571.584,321.652 L568.584,326.848 L524.416,301.348 L527.416,296.152 L571.584,321.652 Z"/>
    <path d="M523.591,276.598 L526.591,271.402 L592.409,309.402 L589.409,314.598 L523.591,276.598 Z"/>
    <path d="M483.1000,519.1000 L478.000,519.1000 L478.000,473.356 L436.416,449.348 L439.416,444.152 L483.584,469.652 L483.383,469.1000 L483.1000,469.1000 L483.1000,519.1000 Z"/>
    <path d="M506.000,532.000 L500.000,532.000 L500.000,461.207 L436.591,424.598 L439.591,419.402 L504.713,457.000 L506.000,457.000 L506.000,532.000 Z"/>
    <path d="M396.1000,667.1000 L391.000,667.1000 L391.000,621.356 L349.416,597.348 L352.416,592.152 L396.584,617.652 L396.383,617.1000 L396.1000,617.1000 L396.1000,667.1000 Z"/>
    <path d="M419.000,680.000 L413.000,680.000 L413.000,609.207 L349.591,572.598 L352.591,567.402 L417.713,605.000 L419.000,605.000 L419.000,680.000 Z"/>
    <path d="M525.409,571.598 L461.1000,608.207 L461.1000,679.000 L455.1000,679.000 L455.1000,604.000 L457.287,604.000 L522.409,566.402 L525.409,571.598 Z"/>
    <path d="M482.1000,620.356 L482.1000,666.1000 L477.000,666.1000 L477.000,616.1000 L477.617,616.1000 L477.416,616.652 L521.584,591.152 L524.584,596.348 L482.1000,620.356 Z"/>
    <path d="M223.1000,372.1000 L218.000,372.1000 L218.000,326.356 L176.416,302.348 L179.416,297.152 L223.584,322.652 L223.383,322.1000 L223.1000,322.1000 L223.1000,372.1000 Z"/>
    <path d="M246.000,385.000 L240.000,385.000 L240.000,314.785 L175.591,277.598 L178.591,272.402 L243.713,310.000 L246.000,310.000 L246.000,385.000 Z"/>
    <path d="M352.409,277.598 L288.1000,314.207 L288.1000,385.000 L282.1000,385.000 L282.1000,310.000 L284.287,310.000 L349.409,272.402 L352.409,277.598 Z"/>
    <path d="M309.1000,326.356 L309.1000,372.1000 L304.000,372.1000 L304.000,322.1000 L304.617,322.1000 L304.416,322.652 L348.584,297.152 L351.584,302.348 L309.1000,326.356 Z"/>
    <path d="M266.409,424.598 L202.1000,461.207 L202.1000,532.000 L196.1000,532.000 L196.1000,457.000 L198.287,457.000 L263.409,419.402 L266.409,424.598 Z"/>
    <path d="M223.1000,473.356 L223.1000,519.1000 L218.000,519.1000 L218.000,469.1000 L218.617,469.1000 L218.416,469.652 L262.584,444.152 L265.584,449.348 L223.1000,473.356 Z"/>
    <path d="M176.409,567.402 L179.409,572.598 L113.591,610.598 L110.591,605.402 L176.409,567.402 Z"/>
    <path d="M175.584,592.152 L178.584,597.348 L134.416,622.848 L131.416,617.652 L175.584,592.152 Z"/>
    <path d="M310.584,765.652 L307.584,770.848 L263.416,745.348 L266.416,740.152 L310.584,765.652 Z"/>
    <path d="M261.591,720.598 L264.591,715.402 L330.409,753.402 L327.409,758.598 L261.591,720.598 Z"/>
    <path d="M435.409,715.402 L438.409,720.598 L372.591,758.598 L369.591,753.402 L435.409,715.402 Z"/>
    <path d="M435.584,740.152 L438.584,745.348 L394.416,770.848 L391.416,765.652 L435.584,740.152 Z"/>
   </g>
</svg>





