<svg 
  xmlns="http://www.w3.org/2000/svg"
  width="100"
  height="58.3"
  viewBox="0 0 240 140"
>
  <path
    fill="#F3F3F2"
    d="M239.1000,140.000 L236.1000,140.000 L236.1000,97.000 L199.1000,77.000 L163.000,98.000 L163.000,140.000 L157.000,140.000 L157.000,98.000 L117.000,75.000 L117.000,27.000 L80.000,7.000 L42.1000,27.000 L42.1000,75.000 L2.1000,98.000 L2.1000,140.000 L0.000,140.000 L0.000,93.000 L37.000,72.000 L37.000,27.000 L0.000,6.000 L0.000,-0.000 L2.1000,-0.000 L2.1000,1.1000 L40.000,23.000 L80.000,-0.000 L119.1000,23.000 L157.000,1.1000 L157.000,-0.000 L163.000,-0.000 L163.000,3.1000 L123.000,27.000 L123.000,72.000 L159.1000,93.000 L199.1000,70.000 L239.1000,93.000 L240.1000,93.000 L240.1000,140.000 L239.1000,140.000 ZM236.1000,4.286 L236.1000,-0.000 L239.1000,-0.000 L240.1000,-0.000 L240.1000,6.000 L239.1000,6.000 L236.1000,4.286 ZM234.1000,50.1000 L199.1000,32.000 L164.1000,50.1000 L162.000,45.1000 L197.000,27.000 L197.000,-0.000 L203.000,-0.000 L203.000,27.000 L238.000,45.1000 L234.1000,50.1000 ZM77.000,51.1000 L82.1000,51.1000 L82.1000,97.000 L117.1000,115.1000 L114.1000,120.1000 L80.000,102.000 L45.000,120.1000 L42.000,115.1000 L77.000,97.000 L77.000,51.1000 ZM203.000,140.000 L197.000,140.000 L197.000,121.1000 L203.000,121.1000 L203.000,140.000 Z"
  />
</svg>