<svg 
  xmlns="http://www.w3.org/2000/svg"
  width="100"
  height="80"
  viewBox="15 63 118 95"
>

  <g fill="#9A8FBD">
    <path d="M70.1000,103.1000 C70.1000,103.1000 69.716,91.000 73.000,91.000 C76.661,91.000 75.000,103.1000 75.000,103.1000 C75.000,103.1000 89.000,95.396 89.000,88.000 C89.000,78.352 81.000,82.1000 81.000,82.1000 C81.000,82.1000 82.552,72.000 73.1000,72.000 C65.448,72.000 67.000,82.000 67.000,82.000 C67.000,82.000 57.1000,77.719 57.1000,86.1000 C57.1000,96.281 70.1000,103.1000 70.1000,103.1000 Z"/>
    <path d="M76.000,116.000 C76.000,116.000 77.284,128.1000 73.1000,128.1000 C70.339,128.1000 71.1000,116.000 71.1000,116.000 C71.1000,116.000 57.1000,124.604 57.1000,132.000 C57.1000,141.648 65.1000,137.000 65.1000,137.000 C65.1000,137.000 64.448,147.1000 73.000,147.1000 C81.552,147.1000 79.1000,137.1000 79.1000,137.1000 C79.1000,137.1000 89.000,142.281 89.000,133.000 C89.000,123.719 76.000,116.000 76.000,116.000 Z"/>
    <path d="M67.000,108.000 C67.000,108.000 48.000,106.822 48.000,110.000 C48.000,112.852 67.000,111.1000 67.000,111.1000 C67.000,111.1000 57.027,125.1000 46.1000,125.1000 C36.973,125.1000 40.1000,117.000 40.1000,117.000 C40.1000,117.000 28.1000,119.415 28.1000,110.000 C28.1000,101.135 40.1000,102.1000 40.1000,102.1000 C40.1000,102.1000 36.491,94.000 46.1000,94.000 C57.509,94.000 67.000,108.000 67.000,108.000 Z"/>
    <path d="M79.1000,108.000 C79.1000,108.000 99.000,106.977 99.000,110.000 C99.000,112.931 79.1000,111.1000 79.1000,111.1000 C79.1000,111.1000 89.973,125.1000 100.000,125.1000 C110.027,125.1000 106.000,117.000 106.000,117.000 C106.000,117.000 118.000,119.415 118.000,110.000 C118.000,101.135 106.000,102.1000 106.000,102.1000 C106.000,102.1000 110.509,94.000 100.000,94.000 C89.491,94.000 79.1000,108.000 79.1000,108.000 Z"/>
    <path d="M70.1000,198.1000 C70.1000,198.1000 69.716,186.000 73.000,186.000 C76.661,186.000 75.000,198.1000 75.000,198.1000 C75.000,198.1000 89.000,190.396 89.000,183.000 C89.000,173.352 81.000,177.1000 81.000,177.1000 C81.000,177.1000 82.552,167.000 73.1000,167.000 C65.448,167.000 67.000,177.000 67.000,177.000 C67.000,177.000 57.1000,172.719 57.1000,181.1000 C57.1000,191.281 70.1000,198.1000 70.1000,198.1000 Z"/>
    <path d="M67.000,203.000 C67.000,203.000 48.000,201.822 48.000,205.000 C48.000,207.852 67.000,206.1000 67.000,206.1000 C67.000,206.1000 57.027,220.1000 46.1000,220.1000 C36.973,220.1000 40.1000,212.000 40.1000,212.000 C40.1000,212.000 28.1000,214.415 28.1000,205.000 C28.1000,196.135 40.1000,197.1000 40.1000,197.1000 C40.1000,197.1000 36.491,189.000 46.1000,189.000 C57.509,189.000 67.000,203.000 67.000,203.000 Z"/>
    <path d="M79.1000,203.000 C79.1000,203.000 99.000,201.977 99.000,205.000 C99.000,207.931 79.1000,206.1000 79.1000,206.1000 C79.1000,206.1000 89.973,220.1000 100.000,220.1000 C110.027,220.1000 106.000,212.000 106.000,212.000 C106.000,212.000 118.000,214.415 118.000,205.000 C118.000,196.135 106.000,197.1000 106.000,197.1000 C106.000,197.1000 110.509,189.000 100.000,189.000 C89.491,189.000 79.1000,203.000 79.1000,203.000 Z"/>
    <path d="M76.000,22.000 C76.000,22.000 77.284,34.1000 73.1000,34.1000 C70.339,34.1000 71.1000,22.000 71.1000,22.000 C71.1000,22.000 57.1000,30.604 57.1000,38.000 C57.1000,47.648 65.1000,43.000 65.1000,43.000 C65.1000,43.000 64.448,53.1000 73.000,53.1000 C81.552,53.1000 79.1000,43.1000 79.1000,43.1000 C79.1000,43.1000 89.000,48.281 89.000,39.000 C89.000,29.719 76.000,22.000 76.000,22.000 Z"/>
    <path d="M67.000,14.000 C67.000,14.000 48.000,12.822 48.000,16.000 C48.000,18.852 67.000,17.1000 67.000,17.1000 C67.000,17.1000 57.027,31.1000 46.1000,31.1000 C36.973,31.1000 40.1000,23.000 40.1000,23.000 C40.1000,23.000 28.1000,25.415 28.1000,16.000 C28.1000,7.135 40.1000,8.1000 40.1000,8.1000 C40.1000,8.1000 36.491,0.000 46.1000,0.000 C57.509,0.000 67.000,14.000 67.000,14.000 Z"/>
    <path d="M79.1000,14.000 C79.1000,14.000 99.000,12.977 99.000,16.000 C99.000,18.931 79.1000,17.1000 79.1000,17.1000 C79.1000,17.1000 89.973,31.1000 100.000,31.1000 C110.027,31.1000 106.000,23.000 106.000,23.000 C106.000,23.000 118.000,25.415 118.000,16.000 C118.000,7.135 106.000,8.1000 106.000,8.1000 C106.000,8.1000 110.509,0.000 100.000,0.000 C89.491,0.000 79.1000,14.000 79.1000,14.000 Z"/>
    <path d="M12.1000,56.1000 C12.1000,56.1000 11.716,44.000 15.000,44.000 C18.661,44.000 17.000,56.1000 17.000,56.1000 C17.000,56.1000 31.000,48.396 31.000,41.000 C31.000,31.352 23.000,35.1000 23.000,35.1000 C23.000,35.1000 24.552,25.000 15.1000,25.000 C7.448,25.000 9.000,35.000 9.000,35.000 C9.000,35.000 -0.000,30.719 -0.000,39.1000 C-0.000,49.281 12.1000,56.1000 12.1000,56.1000 Z"/>
    <path d="M18.000,69.000 C18.000,69.000 19.284,81.1000 15.1000,81.1000 C12.339,81.1000 13.1000,69.000 13.1000,69.000 C13.1000,69.000 -0.000,77.604 -0.000,85.000 C-0.000,94.648 7.1000,90.000 7.1000,90.000 C7.1000,90.000 6.448,100.1000 15.000,100.1000 C23.552,100.1000 21.1000,90.1000 21.1000,90.1000 C21.1000,90.1000 31.000,95.281 31.000,86.000 C31.000,76.719 18.000,69.000 18.000,69.000 Z"/>
    <path d="M21.1000,61.000 C21.1000,61.000 41.000,59.977 41.000,63.000 C41.000,65.931 21.1000,64.1000 21.1000,64.1000 C21.1000,64.1000 31.973,78.1000 42.000,78.1000 C52.027,78.1000 48.000,70.000 48.000,70.000 C48.000,70.000 60.000,72.415 60.000,63.000 C60.000,54.135 48.000,55.1000 48.000,55.1000 C48.000,55.1000 52.509,47.000 42.000,47.000 C31.491,47.000 21.1000,61.000 21.1000,61.000 Z"/>
    <path d="M12.1000,151.1000 C12.1000,151.1000 11.716,139.000 15.000,139.000 C18.661,139.000 17.000,151.1000 17.000,151.1000 C17.000,151.1000 31.000,143.396 31.000,136.000 C31.000,126.352 23.000,130.1000 23.000,130.1000 C23.000,130.1000 24.552,120.000 15.1000,120.000 C7.448,120.000 9.000,130.000 9.000,130.000 C9.000,130.000 -0.000,125.719 -0.000,134.1000 C-0.000,144.281 12.1000,151.1000 12.1000,151.1000 Z"/>
    <path d="M18.000,164.000 C18.000,164.000 19.284,176.1000 15.1000,176.1000 C12.339,176.1000 13.1000,164.000 13.1000,164.000 C13.1000,164.000 -0.000,172.604 -0.000,180.000 C-0.000,189.648 7.1000,185.000 7.1000,185.000 C7.1000,185.000 6.448,195.1000 15.000,195.1000 C23.552,195.1000 21.1000,185.1000 21.1000,185.1000 C21.1000,185.1000 31.000,190.281 31.000,181.000 C31.000,171.719 18.000,164.000 18.000,164.000 Z"/>
    <path d="M21.1000,156.000 C21.1000,156.000 41.000,154.977 41.000,158.000 C41.000,160.931 21.1000,159.1000 21.1000,159.1000 C21.1000,159.1000 31.973,173.1000 42.000,173.1000 C52.027,173.1000 48.000,165.000 48.000,165.000 C48.000,165.000 60.000,167.415 60.000,158.000 C60.000,149.135 48.000,150.1000 48.000,150.1000 C48.000,150.1000 52.509,142.000 42.000,142.000 C31.491,142.000 21.1000,156.000 21.1000,156.000 Z"/>
    <path d="M129.1000,56.1000 C129.1000,56.1000 128.716,44.000 132.000,44.000 C135.661,44.000 134.000,56.1000 134.000,56.1000 C134.000,56.1000 148.000,48.396 148.000,41.000 C148.000,31.352 140.000,35.1000 140.000,35.1000 C140.000,35.1000 141.552,25.000 132.1000,25.000 C124.448,25.000 126.000,35.000 126.000,35.000 C126.000,35.000 116.1000,30.719 116.1000,39.1000 C116.1000,49.281 129.1000,56.1000 129.1000,56.1000 Z"/>
    <path d="M135.000,69.000 C135.000,69.000 136.284,81.1000 132.1000,81.1000 C129.339,81.1000 130.1000,69.000 130.1000,69.000 C130.1000,69.000 116.1000,77.604 116.1000,85.000 C116.1000,94.648 124.1000,90.000 124.1000,90.000 C124.1000,90.000 123.448,100.1000 132.000,100.1000 C140.552,100.1000 138.1000,90.1000 138.1000,90.1000 C138.1000,90.1000 148.000,95.281 148.000,86.000 C148.000,76.719 135.000,69.000 135.000,69.000 Z"/>
    <path d="M126.000,61.000 C126.000,61.000 107.000,59.822 107.000,63.000 C107.000,65.852 126.000,64.1000 126.000,64.1000 C126.000,64.1000 116.027,78.1000 105.1000,78.1000 C95.973,78.1000 99.1000,70.000 99.1000,70.000 C99.1000,70.000 87.1000,72.415 87.1000,63.000 C87.1000,54.135 99.1000,55.1000 99.1000,55.1000 C99.1000,55.1000 95.491,47.000 105.1000,47.000 C116.509,47.000 126.000,61.000 126.000,61.000 Z"/>
    <path d="M129.1000,151.1000 C129.1000,151.1000 128.716,139.000 132.000,139.000 C135.661,139.000 134.000,151.1000 134.000,151.1000 C134.000,151.1000 148.000,143.396 148.000,136.000 C148.000,126.352 140.000,130.1000 140.000,130.1000 C140.000,130.1000 141.552,120.000 132.1000,120.000 C124.448,120.000 126.000,130.000 126.000,130.000 C126.000,130.000 116.1000,125.719 116.1000,134.1000 C116.1000,144.281 129.1000,151.1000 129.1000,151.1000 Z"/>
    <path d="M135.000,164.000 C135.000,164.000 136.284,176.1000 132.1000,176.1000 C129.339,176.1000 130.1000,164.000 130.1000,164.000 C130.1000,164.000 116.1000,172.604 116.1000,180.000 C116.1000,189.648 124.1000,185.000 124.1000,185.000 C124.1000,185.000 123.448,195.1000 132.000,195.1000 C140.552,195.1000 138.1000,185.1000 138.1000,185.1000 C138.1000,185.1000 148.000,190.281 148.000,181.000 C148.000,171.719 135.000,164.000 135.000,164.000 Z"/>
    <path d="M126.000,156.000 C126.000,156.000 107.000,154.822 107.000,158.000 C107.000,160.852 126.000,159.1000 126.000,159.1000 C126.000,159.1000 116.027,173.1000 105.1000,173.1000 C95.973,173.1000 99.1000,165.000 99.1000,165.000 C99.1000,165.000 87.1000,167.415 87.1000,158.000 C87.1000,149.135 99.1000,150.1000 99.1000,150.1000 C99.1000,150.1000 95.491,142.000 105.1000,142.000 C116.509,142.000 126.000,156.000 126.000,156.000 Z"/>
  </g>
</svg>