<svg 
  xmlns="http://www.w3.org/2000/svg"
  width="100"
  height="100"
  viewBox="50 100 184 184"
>
  <g fill="#a27033">
    <path d="M0.221,265.462 L81.538,184.145 L116.893,219.500 L35.576,300.817 L0.221,265.462 Z"/>
    <path d="M184.069,173.538 L265.386,92.221 L300.741,127.576 L219.424,208.893 L184.069,173.538 Z"/>
    <path d="M0.221,173.538 L81.538,92.221 L116.893,127.576 L35.576,208.893 L0.221,173.538 Z"/>
    <path d="M127.500,230.107 L208.817,311.424 L173.462,346.779 L92.145,265.462 L127.500,230.107 Z"/>
    <path d="M127.500,138.183 L208.817,219.500 L173.462,254.855 L92.145,173.538 L127.500,138.183 Z"/>
    <path d="M127.500,46.259 L208.817,127.576 L173.462,162.931 L92.145,81.614 L127.500,46.259 Z"/>
    <path d="M0.221,357.386 L81.538,276.069 L116.893,311.424 L35.576,392.741 L0.221,357.386 Z"/>
    <path d="M184.069,265.462 L265.386,184.145 L300.741,219.500 L219.424,300.817 L184.069,265.462 Z"/>
    <path d="M184.069,81.462 L265.386,0.145 L300.741,35.500 L219.424,116.817 L184.069,81.462 Z"/>
  </g>
</svg>