<svg 
  xmlns="http://www.w3.org/2000/svg"
  width="100"
  height="53"
  viewBox="0 0 285 151"
>
  <path
    fill="rgb(185, 60, 69)"
    d="M285.000,151.1000 L273.1000,151.1000 L142.500,116.965 L11.000,151.1000 L-0.000,151.1000 L-0.000,148.1000 L131.310,113.984 L-0.000,79.000 L-0.000,79.000 L-0.000,72.1000 L-0.000,72.1000 L131.310,38.016 L-0.000,3.000 L-0.000,0.000 L11.000,0.000 L142.500,35.035 L273.1000,0.000 L285.000,0.000 L285.000,3.000 L153.690,38.016 L285.000,72.1000 L285.000,72.1000 L285.000,79.000 L285.000,79.000 L153.690,113.984 L285.000,148.1000 L285.000,151.1000 ZM273.750,76.000 L142.500,41.000 L11.250,76.000 L142.500,110.1000 L273.750,76.000 Z"
  />
</svg>