<svg 
  xmlns="http://www.w3.org/2000/svg"
  width="100"
  height="58"
  viewBox="1 1 270 155"
>
  <path
    fill="#426579"
    d="M269.391,31.753 C269.391,28.605 270.750,11.375 270.750,11.375 L273.750,11.375 C273.750,11.375 274.391,28.895 274.391,31.753 C274.391,34.610 269.391,34.900 269.391,31.753 ZM271.1000,63.1000 L271.1000,65.1000 L271.1000,67.000 L271.1000,69.000 L265.046,73.019 L271.1000,77.000 L271.1000,80.000 L271.1000,83.000 L265.046,86.981 L271.1000,91.000 L271.1000,93.000 L271.1000,94.000 L271.1000,95.1000 L219.865,125.929 L271.1000,155.1000 L271.1000,157.1000 L267.1000,157.1000 L216.050,128.119 L164.500,157.713 L165.000,157.1000 L163.1000,157.1000 L156.000,157.1000 L155.000,157.1000 L155.503,157.713 L148.535,153.686 L141.499,157.715 L142.000,157.1000 L141.000,157.1000 L133.000,157.1000 L132.000,157.1000 L132.501,157.715 L125.465,153.686 L118.497,157.713 L118.1000,157.1000 L118.000,157.1000 L109.1000,157.1000 L109.000,157.1000 L109.500,157.713 L57.950,128.119 L5.1000,157.1000 L2.000,157.1000 L2.000,155.1000 L54.135,125.929 L2.000,95.1000 L2.000,94.000 L2.000,93.000 L2.000,91.000 L8.954,86.981 L2.000,83.000 L2.000,80.000 L2.000,77.000 L8.954,73.019 L2.000,69.000 L2.000,67.000 L2.000,65.1000 L2.000,63.1000 L53.337,34.529 L2.000,4.1000 L2.000,1.1000 L4.1000,1.1000 L57.377,32.210 L109.500,2.287 L109.000,1.1000 L109.1000,1.1000 L118.000,1.1000 L118.1000,1.1000 L118.497,2.287 L125.465,6.314 L132.501,2.285 L132.000,1.1000 L133.000,1.1000 L141.000,1.1000 L142.000,1.1000 L141.499,2.285 L148.535,6.314 L155.503,2.287 L155.000,1.1000 L156.000,1.1000 L163.1000,1.1000 L165.000,1.1000 L164.500,2.287 L216.623,32.210 L268.1000,1.1000 L271.1000,1.1000 L271.1000,4.1000 L220.663,34.529 L271.1000,63.1000 ZM268.1000,80.000 L260.923,75.402 L252.966,80.000 L260.923,84.598 L268.1000,80.000 ZM76.581,47.898 L69.021,43.550 L17.234,73.035 L25.180,77.604 L76.581,47.898 ZM17.234,86.965 L69.801,116.894 L77.344,112.543 L25.180,82.396 L17.234,86.965 ZM29.348,80.000 L81.638,110.067 L133.080,80.396 L80.878,50.370 L29.348,80.000 ZM85.487,112.280 L137.000,141.900 L188.513,112.280 L137.000,82.650 L85.487,112.280 ZM137.000,78.135 L189.124,48.071 L137.000,18.100 L84.876,48.071 L137.000,78.135 ZM140.920,80.396 L192.362,110.067 L244.652,80.000 L193.122,50.370 L140.920,80.396 ZM196.656,112.543 L204.199,116.894 L256.766,86.965 L248.820,82.396 L196.656,112.543 ZM248.820,77.604 L256.766,73.035 L204.979,43.550 L197.419,47.898 L248.820,77.604 ZM268.127,93.498 L260.911,89.349 L208.483,119.365 L215.581,123.458 L268.127,93.498 ZM160.021,155.137 L211.747,125.644 L204.648,121.560 L153.026,151.115 L160.021,155.137 ZM148.582,148.559 L200.347,119.087 L192.822,114.759 L141.440,144.453 L148.582,148.559 ZM137.000,155.153 L144.090,151.117 L137.000,147.019 L129.910,151.117 L137.000,155.153 ZM132.560,144.453 L81.178,114.759 L73.653,119.087 L125.418,148.559 L132.560,144.453 ZM113.979,155.137 L120.974,151.115 L69.352,121.560 L62.253,125.644 L113.979,155.137 ZM5.873,93.498 L58.419,123.458 L65.517,119.365 L13.089,89.349 L5.873,93.498 ZM4.1000,80.000 L13.077,84.598 L21.034,80.000 L13.077,75.402 L4.1000,80.000 ZM5.873,66.502 L13.089,70.651 L64.734,41.084 L57.625,36.995 L5.873,66.502 ZM113.979,4.863 L61.672,34.687 L68.763,38.777 L120.974,8.885 L113.979,4.863 ZM125.418,11.441 L73.056,41.253 L80.575,45.590 L132.560,15.547 L125.418,11.441 ZM137.000,4.847 L129.910,8.883 L137.000,12.981 L144.090,8.883 L137.000,4.847 ZM141.440,15.547 L193.425,45.590 L200.944,41.253 L148.582,11.441 L141.440,15.547 ZM160.021,4.863 L153.026,8.885 L205.237,38.777 L212.328,34.687 L160.021,4.863 ZM216.375,36.995 L209.266,41.084 L260.911,70.651 L268.127,66.502 L216.375,36.995 ZM167.940,83.172 C164.793,83.172 147.563,81.813 147.563,81.813 L147.563,78.812 C147.563,78.812 165.083,78.172 167.940,78.172 C170.797,78.172 171.087,83.172 167.940,83.172 ZM140.359,52.622 C140.359,55.770 138.1000,73.000 138.1000,73.000 L136.000,73.000 C136.000,73.000 135.359,55.480 135.359,52.622 C135.359,49.765 140.359,49.475 140.359,52.622 ZM139.391,108.753 C139.391,111.610 134.391,111.900 134.391,108.753 C134.391,105.605 135.750,88.375 135.750,88.375 L138.750,88.375 C138.750,88.375 139.391,105.895 139.391,108.753 ZM104.810,77.203 C107.957,77.203 125.188,78.562 125.188,78.562 L125.188,81.563 C125.188,81.563 107.667,82.203 104.810,82.203 C101.953,82.203 101.663,77.203 104.810,77.203 ZM238.810,0.203 C241.957,0.203 259.188,1.562 259.188,1.562 L259.188,4.562 C259.188,4.562 241.667,5.203 238.810,5.203 C235.953,5.203 235.663,0.203 238.810,0.203 ZM33.940,5.172 C30.793,5.172 13.563,3.812 13.563,3.812 L13.563,0.812 C13.563,0.812 31.083,0.172 33.940,0.172 C36.797,0.172 37.087,5.172 33.940,5.172 ZM5.391,31.753 C5.391,34.610 0.391,34.900 0.391,31.753 C0.391,28.605 1.750,11.375 1.750,11.375 L4.750,11.375 C4.750,11.375 5.391,28.895 5.391,31.753 ZM5.359,130.622 C5.359,133.770 4.000,151.000 4.000,151.000 L0.1000,151.000 C0.1000,151.000 0.359,133.480 0.359,130.622 C0.359,127.765 5.359,127.475 5.359,130.622 ZM33.940,160.172 C30.793,160.172 13.563,158.813 13.563,158.813 L13.563,155.813 C13.563,155.813 31.083,155.172 33.940,155.172 C36.797,155.172 37.087,160.172 33.940,160.172 ZM238.810,155.203 C241.957,155.203 259.188,156.563 259.188,156.563 L259.188,159.563 C259.188,159.563 241.667,160.203 238.810,160.203 C235.953,160.203 235.663,155.203 238.810,155.203 ZM269.359,130.622 C269.359,127.765 274.359,127.475 274.359,130.622 C274.359,133.770 272.1000,151.000 272.1000,151.000 L270.000,151.000 C270.000,151.000 269.359,133.480 269.359,130.622 Z"
  />
</svg>