<svg 
  xmlns="http://www.w3.org/2000/svg"
  width="100"
  height="86"
  viewBox="79 30 264 228"
>
  <g fill="#737373">
    <path d="M-0.000,69.1000 L300.000,69.1000 L300.000,85.000 L-0.000,85.000 L-0.000,69.1000 Z"/>
    <path d="M0.1000,189.1000 L301.000,189.1000 L301.000,205.000 L0.1000,205.000 L0.1000,189.1000 Z"/>
    <path d="M13.495,0.147 L163.495,259.955 L150.505,267.455 L0.505,7.647 L13.495,0.147 Z"/>
    <path d="M150.005,-0.009 L0.035,259.816 L13.025,267.318 L162.995,7.493 L150.005,-0.009 Z"/>
    <path d="M145.495,0.147 L295.495,259.955 L282.505,267.455 L132.505,7.647 L145.495,0.147 Z"/>
    <path d="M282.005,-0.009 L132.035,259.816 L145.025,267.318 L294.995,7.493 L282.005,-0.009 Z"/>
    <path d="M131.1000,69.1000 L432.000,69.1000 L432.000,85.000 L131.1000,85.000 L131.1000,69.1000 Z"/>
    <path d="M132.1000,189.1000 L433.000,189.1000 L433.000,205.000 L132.1000,205.000 L132.1000,189.1000 Z"/>
    <path d="M277.495,0.147 L427.495,259.955 L414.505,267.455 L264.505,7.647 L277.495,0.147 Z"/>
    <path d="M414.005,-0.009 L264.035,259.816 L277.025,267.318 L426.995,7.493 L414.005,-0.009 Z"/>
  </g>
</svg>