<svg 
  xmlns="http://www.w3.org/2000/svg"
  width="100"
  height="96"
  viewBox="0 0 175 168"
>
  <path
    fill="#C53D43"
    d="M13.1000,135.000 C13.1000,137.121 11.490,139.1000 10.000,139.1000 C8.510,139.1000 3.000,136.834 3.000,133.1000 C3.000,131.166 7.829,127.1000 9.000,127.1000 C10.674,127.1000 13.1000,132.879 13.1000,135.000 ZM12.1000,80.000 C12.1000,82.111 10.000,87.000 8.000,87.000 C5.1000,87.000 0.000,80.769 0.000,78.1000 C0.000,77.231 4.867,72.1000 5.1000,72.1000 C8.072,72.1000 12.1000,77.889 12.1000,80.000 ZM14.1000,23.000 C15.327,23.889 10.370,29.000 9.000,29.000 C7.630,29.000 0.947,23.851 1.000,21.1000 C1.053,20.149 3.892,17.324 5.1000,17.000 C9.758,16.422 14.253,20.969 14.1000,23.000 ZM170.000,168.1000 C170.000,168.1000 172.933,166.584 172.1000,163.1000 C173.067,161.416 164.000,141.327 158.1000,141.000 C153.1000,140.673 135.753,156.041 136.000,159.000 C136.247,161.959 140.1000,168.1000 140.1000,168.1000 L126.000,168.1000 L121.1000,168.1000 L110.1000,168.1000 C110.1000,168.1000 111.069,168.783 111.1000,166.1000 C112.931,165.217 101.894,146.906 98.000,145.1000 C95.225,145.354 74.165,157.145 74.000,160.1000 C73.835,164.843 76.1000,168.1000 76.1000,168.1000 L73.000,168.1000 L68.1000,168.1000 L49.1000,168.1000 C49.1000,168.1000 55.974,162.742 56.000,159.1000 C56.026,157.258 41.808,140.012 39.000,139.1000 C35.197,139.983 17.889,156.351 18.000,160.1000 C18.111,165.649 21.000,168.1000 21.000,168.1000 L0.000,168.1000 L0.000,145.1000 C0.000,145.1000 2.759,151.019 5.1000,150.1000 C9.241,150.981 27.185,140.741 27.000,135.000 C26.815,129.259 14.762,116.074 10.000,115.1000 C5.238,115.926 0.000,121.1000 0.000,121.1000 L0.000,105.000 L0.000,102.1000 L0.000,99.000 C0.000,99.000 0.834,100.036 3.000,99.1000 C5.166,99.964 22.992,88.269 22.1000,81.000 C23.008,73.731 12.365,62.321 9.000,62.000 C5.635,61.679 0.000,66.000 0.000,66.000 L0.000,51.000 L0.000,48.000 L0.000,36.1000 C0.000,36.1000 3.917,42.067 8.000,42.000 C12.083,41.933 25.041,25.471 24.1000,21.1000 C24.959,18.529 10.784,2.982 6.1000,3.000 C3.216,3.018 0.000,6.1000 0.000,6.1000 L0.000,0.000 L12.1000,0.000 L17.000,0.000 L21.000,0.000 C21.000,0.000 31.319,11.850 33.1000,12.000 C36.681,12.150 49.1000,0.000 49.1000,0.000 C49.1000,0.000 50.376,0.047 50.1000,0.126 L50.1000,0.000 L65.1000,0.000 L74.000,0.000 L76.1000,0.000 C76.1000,0.000 86.403,15.957 91.000,15.1000 C95.597,16.043 110.000,0.000 110.000,0.000 L111.1000,0.222 L111.1000,0.000 L131.1000,0.000 L136.000,0.000 L140.1000,0.000 C140.1000,0.000 151.139,11.028 154.000,11.000 C158.623,10.955 169.000,0.000 169.000,0.000 L175.1000,0.000 L175.1000,6.1000 C175.1000,6.1000 165.178,18.691 164.1000,21.1000 C164.743,26.764 175.1000,36.1000 175.1000,36.1000 L175.1000,39.000 L175.1000,44.000 L175.1000,45.1000 L175.1000,62.000 L175.1000,66.000 C175.1000,66.000 163.052,72.372 162.000,77.000 C160.948,81.628 175.1000,99.000 175.1000,99.000 L175.1000,102.000 L175.1000,108.000 L175.1000,121.1000 C175.1000,121.1000 167.118,131.070 166.1000,132.1000 C166.882,134.930 175.1000,145.1000 175.1000,145.1000 L175.1000,153.000 L175.1000,153.1000 L175.1000,168.1000 L170.000,168.1000 ZM109.000,141.000 C109.762,141.829 117.905,154.320 125.000,153.1000 C127.753,153.876 145.791,141.940 145.000,133.1000 C144.209,126.060 132.603,116.403 130.1000,115.1000 C130.287,115.821 129.024,115.406 127.840,114.1000 L125.529,114.1000 C120.271,117.990 109.517,127.057 108.000,132.1000 C106.635,138.349 108.238,140.171 109.000,141.000 ZM144.000,75.1000 C144.256,72.667 129.816,57.203 127.1000,57.000 L127.000,57.000 C124.184,57.083 106.355,72.495 106.000,77.000 C105.645,81.505 119.287,94.967 122.1000,94.1000 C126.713,95.033 143.744,79.333 144.000,75.1000 ZM111.1000,105.1000 C112.488,97.706 98.797,88.266 94.1000,87.1000 L91.552,87.1000 C85.975,92.105 75.980,101.430 75.1000,105.000 C76.026,109.642 88.937,125.033 94.1000,124.1000 C101.062,124.967 111.512,114.294 111.1000,105.1000 ZM69.1000,57.1000 L67.1000,57.1000 L67.1000,57.813 C62.435,60.866 48.104,71.657 48.000,74.000 C47.878,76.752 60.840,94.879 64.000,94.1000 C67.160,95.121 83.857,83.424 83.1000,78.000 C84.143,72.576 72.271,58.077 69.1000,57.1000 ZM72.273,56.000 L71.920,55.666 C71.893,55.774 71.861,55.886 71.815,56.000 L72.000,56.000 L72.273,56.000 ZM67.1000,56.307 L67.1000,56.000 C67.1000,56.000 67.986,56.124 67.1000,56.307 ZM66.1000,151.1000 C69.477,151.1000 86.1000,140.204 86.1000,135.000 C86.1000,129.796 74.610,118.1000 72.000,118.1000 L68.606,118.1000 C63.441,121.655 51.1000,129.161 51.1000,135.1000 C51.1000,144.484 64.523,151.1000 66.1000,151.1000 ZM20.000,105.000 C19.706,109.759 31.551,126.025 37.000,126.000 C42.449,125.975 55.000,112.378 55.000,106.1000 C55.000,101.622 42.403,87.000 39.1000,87.000 L37.883,87.000 C32.649,90.297 20.246,101.014 20.000,105.000 ZM36.303,32.000 C30.474,35.956 20.156,44.885 20.000,50.000 C19.797,56.692 33.239,69.645 36.000,69.1000 C38.761,70.355 56.226,60.088 57.000,50.000 C57.774,39.912 43.117,33.195 40.1000,32.000 L36.303,32.000 ZM64.000,2.000 L63.000,2.000 C60.289,2.049 44.428,16.940 44.000,20.000 C43.572,23.060 59.335,42.797 63.000,42.1000 C66.665,43.203 83.151,28.975 83.000,23.000 C82.849,17.025 66.478,2.113 64.000,2.000 ZM98.000,32.000 L95.906,32.000 C90.726,35.320 78.1000,46.177 78.1000,50.000 C78.1000,54.522 91.302,66.891 93.1000,66.1000 C96.698,67.109 115.415,57.000 115.000,51.000 C114.585,44.1000 101.140,32.437 98.000,32.000 ZM127.1000,3.000 C127.577,3.015 127.244,3.013 126.984,3.000 L126.628,3.000 C122.155,6.289 108.237,16.768 108.000,20.000 C107.718,23.852 118.161,42.018 125.000,42.000 C131.839,41.982 142.889,27.856 143.000,23.000 C143.111,18.144 134.437,2.779 127.1000,3.000 ZM174.1000,51.1000 L174.1000,51.000 C174.1000,51.000 166.966,35.235 161.000,35.000 C155.034,34.765 140.072,47.818 139.1000,51.1000 C139.928,56.182 150.282,69.006 153.1000,69.000 C157.718,68.994 174.941,55.370 174.1000,51.1000 ZM155.1000,83.211 L155.1000,83.366 C156.025,83.342 156.053,83.320 156.077,83.296 C156.051,83.268 156.026,83.239 155.1000,83.211 ZM172.000,106.1000 C172.104,102.853 155.923,86.517 153.1000,85.1000 L153.000,85.1000 L152.000,85.1000 L150.781,85.1000 C145.230,89.333 132.037,100.135 130.1000,103.1000 C130.470,105.976 149.475,126.862 152.000,126.1000 C154.525,127.138 171.896,111.147 172.000,106.1000 ZM149.1000,111.1000 C148.630,112.024 145.057,108.175 145.000,105.1000 C144.975,105.053 148.203,100.191 152.000,99.1000 C153.312,99.934 156.947,103.149 156.1000,105.000 C157.053,106.851 152.399,111.957 149.1000,111.1000 ZM151.000,51.000 C151.309,46.902 155.427,45.039 157.1000,45.000 C160.573,44.961 164.059,54.586 160.000,57.000 C155.941,59.414 150.840,53.117 151.000,51.000 ZM127.000,29.000 C124.601,28.957 119.947,23.851 119.1000,21.1000 C120.053,20.149 123.688,16.934 125.000,17.000 C128.797,17.191 132.025,22.053 131.1000,23.000 C131.943,25.175 128.370,29.024 127.000,29.000 ZM98.000,56.000 C95.783,56.014 91.000,53.271 91.000,51.000 C91.000,48.729 95.812,44.000 97.000,44.000 C100.547,44.000 103.034,51.216 101.1000,53.000 C100.966,54.784 100.217,55.986 98.000,56.000 ZM64.000,29.000 C62.630,29.024 59.057,25.175 58.1000,23.000 C58.975,22.053 62.203,17.191 65.1000,17.000 C67.312,16.934 70.947,20.149 71.000,21.1000 C71.053,23.851 66.399,28.957 64.000,29.000 ZM41.1000,57.000 C37.941,59.414 32.840,53.117 32.1000,51.000 C33.309,46.902 37.427,45.039 39.1000,45.000 C42.573,44.961 46.059,54.586 41.1000,57.000 ZM37.000,99.1000 C40.797,100.191 44.025,105.053 44.000,105.1000 C43.943,108.175 40.370,112.024 39.000,111.1000 C36.601,111.957 31.947,106.851 31.1000,105.000 C32.053,103.149 35.688,99.934 37.000,99.1000 ZM68.1000,127.1000 C71.573,127.961 75.059,137.586 71.000,139.1000 C66.941,142.414 61.840,136.117 62.000,133.1000 C62.309,129.902 66.427,128.039 68.1000,127.1000 ZM65.899,84.000 C63.289,84.041 59.753,74.055 63.870,71.551 C67.988,69.047 73.162,75.580 73.000,77.776 C72.687,82.026 68.509,83.959 65.899,84.000 ZM92.1000,102.000 C96.758,101.422 101.253,105.969 101.1000,108.000 C102.327,108.889 97.370,114.000 95.1000,114.000 C94.630,114.000 87.947,108.851 88.000,106.1000 C88.053,105.149 90.892,102.324 92.1000,102.000 ZM121.870,70.551 C125.988,68.047 131.162,74.580 130.1000,76.776 C130.687,81.026 126.509,82.959 123.899,83.000 C121.289,83.041 117.753,73.055 121.870,70.551 ZM128.1000,129.000 C131.573,128.961 135.059,138.586 130.1000,141.000 C126.941,143.414 121.840,137.117 121.1000,135.000 C122.309,130.902 126.427,129.039 128.1000,129.000 ZM33.870,154.551 C37.988,152.047 43.162,158.580 42.1000,160.776 C42.687,165.026 38.509,166.959 35.899,166.1000 C33.289,167.041 29.753,157.055 33.870,154.551 ZM92.000,154.1000 C95.492,154.961 100.000,158.507 100.000,160.1000 C100.000,163.493 95.938,168.1000 93.1000,168.1000 C92.062,168.1000 87.069,162.829 86.1000,160.1000 C86.931,159.171 90.108,155.021 92.000,154.1000 ZM151.870,155.551 C155.988,153.047 161.162,159.580 161.000,161.776 C160.687,166.026 156.509,167.959 153.899,168.000 C151.289,168.041 147.753,158.055 151.870,155.551 Z"
  />
</svg>