<svg 
 xmlns="http://www.w3.org/2000/svg"
 width="100"
 height="97"
 viewBox="16 10 175 169"
>

 <g fill="#C53D43">
  <path d="M-0.000,0.000 L217.000,0.000 L217.000,212.1000 L-0.000,212.1000 L-0.000,0.000 Z"/>
 </g>

 <g fill="#000A02">
    <path d="M149.1000,186.1000 C149.855,191.967 162.767,207.836 167.1000,207.1000 C173.233,208.164 187.066,195.931 187.000,191.1000 C186.934,188.069 176.900,168.984 172.1000,169.000 C169.100,169.016 150.145,182.033 149.1000,186.1000 Z"/>
    <path d="M89.000,190.000 C88.932,194.182 101.137,213.177 105.1000,213.000 C110.863,212.823 126.948,197.602 126.1000,194.1000 C127.052,192.398 116.962,173.926 112.000,173.1000 C107.038,174.074 89.068,185.818 89.000,190.000 Z"/>
    <path d="M31.1000,188.1000 C31.1000,195.602 46.449,208.000 48.1000,208.000 C51.551,208.000 70.000,192.728 70.000,188.1000 C70.000,185.272 57.533,168.1000 53.000,168.1000 C48.467,168.1000 31.1000,182.398 31.1000,188.1000 Z"/>
    <path d="M180.1000,161.1000 C180.1000,166.673 192.584,179.143 195.1000,179.000 C199.416,178.857 216.700,169.000 216.1000,163.000 C217.300,156.1000 202.585,143.829 199.000,143.1000 C195.415,144.171 180.1000,157.327 180.1000,161.1000 Z"/>
    <path d="M120.1000,163.000 C120.1000,168.880 133.728,182.000 137.000,182.000 C140.272,182.000 158.000,171.185 158.000,160.1000 C158.000,150.815 142.857,144.058 140.000,144.000 C134.843,143.896 120.1000,157.120 120.1000,163.000 Z"/>
    <path d="M65.1000,163.1000 C65.1000,171.356 77.112,180.014 80.1000,179.1000 C84.888,179.986 100.526,169.084 101.000,162.1000 C101.474,156.916 88.721,147.108 84.1000,147.000 C81.279,146.892 65.1000,156.644 65.1000,163.1000 Z"/>
    <path d="M4.1000,161.1000 C4.1000,166.673 16.584,179.143 19.1000,179.000 C23.416,178.857 40.700,169.000 40.1000,163.000 C41.300,156.1000 26.585,143.829 23.000,143.1000 C19.415,144.171 4.1000,157.327 4.1000,161.1000 Z"/>
    <path d="M146.000,131.1000 C146.000,136.457 161.414,155.000 164.1000,155.000 C168.586,155.000 185.1000,139.311 185.1000,134.1000 C185.1000,130.689 169.138,113.1000 164.1000,113.1000 C160.862,113.1000 146.000,127.543 146.000,131.1000 Z"/>
    <path d="M89.1000,133.000 C89.1000,139.160 103.207,152.1000 109.000,152.1000 C114.793,152.1000 126.000,140.982 126.000,133.1000 C126.000,127.018 115.608,116.900 109.000,115.1000 C100.792,114.882 89.1000,126.840 89.1000,133.000 Z"/>
    <path d="M33.1000,131.1000 C33.1000,136.627 45.284,154.000 51.000,154.000 C56.716,154.000 69.000,140.179 69.000,135.000 C69.000,129.821 60.487,115.1000 53.1000,115.1000 C47.513,115.1000 33.1000,127.373 33.1000,131.1000 Z"/>
    <path d="M175.1000,105.1000 C175.925,111.092 187.145,127.614 191.1000,127.1000 C196.855,128.386 213.244,115.804 213.000,108.1000 C212.756,102.196 202.000,89.426 198.000,89.1000 C193.1000,90.574 176.075,100.908 175.1000,105.1000 Z"/>
    <path d="M119.1000,104.1000 C119.1000,111.602 134.449,124.000 136.1000,124.000 C139.551,124.000 158.000,108.728 158.000,104.1000 C158.000,101.272 145.533,84.1000 141.000,84.1000 C136.467,84.1000 119.1000,98.398 119.1000,104.1000 Z"/>
    <path d="M62.000,102.000 C61.919,106.039 75.543,123.017 78.000,122.1000 C80.457,122.983 97.573,112.590 98.000,105.1000 C98.427,99.410 85.660,85.876 82.1000,86.000 C80.340,86.124 62.081,97.961 62.000,102.000 Z"/>
    <path d="M-0.000,105.1000 C-0.075,111.092 11.145,127.614 15.1000,127.1000 C20.855,128.386 37.244,115.804 37.000,108.1000 C36.756,102.196 26.000,89.426 22.000,89.1000 C17.1000,90.574 0.075,100.908 -0.000,105.1000 Z"/>
    <path d="M153.1000,80.1000 C153.1000,88.356 165.112,97.014 168.1000,96.1000 C172.888,96.986 188.526,86.084 189.000,79.1000 C189.474,73.916 176.721,64.108 172.1000,64.000 C169.279,63.892 153.1000,73.644 153.1000,80.1000 Z"/>
    <path d="M92.1000,77.1000 C92.1000,82.673 104.584,95.143 107.1000,95.000 C111.416,94.857 128.700,85.000 128.1000,79.000 C129.300,72.1000 114.585,59.829 111.000,59.1000 C107.415,60.171 92.1000,73.327 92.1000,77.1000 Z"/>
    <path d="M33.1000,79.000 C33.1000,84.880 46.728,98.000 50.000,98.000 C53.272,98.000 71.000,87.185 71.000,76.1000 C71.000,66.815 55.857,60.058 53.000,60.000 C47.843,59.896 33.1000,73.120 33.1000,79.000 Z"/>
    <path d="M178.1000,50.000 C178.1000,56.160 192.207,69.1000 198.000,69.1000 C203.793,69.1000 215.000,57.982 215.000,50.1000 C215.000,44.018 204.608,33.900 198.000,32.1000 C189.792,31.882 178.1000,43.840 178.1000,50.000 Z"/>
    <path d="M121.1000,47.1000 C121.1000,52.627 133.284,70.000 139.000,70.000 C144.716,70.000 157.000,56.179 157.000,51.000 C157.000,45.821 148.487,31.1000 141.1000,31.1000 C135.513,31.1000 121.1000,43.373 121.1000,47.1000 Z"/>
    <path d="M58.000,47.1000 C58.000,52.457 73.414,71.000 76.1000,71.000 C80.586,71.000 97.1000,55.311 97.1000,50.1000 C97.1000,46.689 81.138,29.1000 76.1000,29.1000 C72.862,29.1000 58.000,43.543 58.000,47.1000 Z"/>
    <path d="M2.1000,50.000 C2.1000,56.160 16.207,69.1000 22.000,69.1000 C27.793,69.1000 39.000,57.982 39.000,50.1000 C39.000,44.018 28.608,33.900 22.000,32.1000 C13.792,31.882 2.1000,43.840 2.1000,50.000 Z"/>
    <path d="M149.1000,17.1000 C149.855,22.967 162.767,38.836 167.1000,38.1000 C173.233,39.164 187.066,26.931 187.000,22.1000 C186.934,19.069 176.900,-0.016 172.1000,0.000 C169.100,0.016 150.145,13.033 149.1000,17.1000 Z"/>
    <path d="M88.000,21.000 C87.932,25.182 100.137,44.177 104.1000,44.000 C109.863,43.823 125.948,28.602 125.1000,25.1000 C126.052,23.398 115.962,4.926 111.000,4.1000 C106.038,5.074 88.068,16.818 88.000,21.000 Z"/>
    <path d="M31.1000,20.1000 C31.1000,27.602 46.449,40.000 48.1000,40.000 C51.551,40.000 70.000,24.728 70.000,20.1000 C70.000,17.272 57.533,0.1000 53.000,0.1000 C48.467,0.1000 31.1000,14.398 31.1000,20.1000 Z"/>
  </g>
  <g fill="#F3F3F2">
    <path d="M167.1000,183.000 C161.836,183.199 164.449,196.092 167.1000,195.1000 C171.551,195.908 174.872,192.192 174.1000,190.000 C175.128,187.808 171.623,182.883 167.1000,183.000 Z"/>
    <path d="M102.000,189.000 C101.860,191.842 106.661,196.894 107.1000,197.000 C109.339,197.106 115.300,192.002 114.1000,189.000 C114.700,185.998 111.410,182.904 107.1000,182.1000 C104.590,183.096 102.140,186.158 102.000,189.000 Z"/>
    <path d="M50.000,195.1000 C54.542,195.1000 57.000,190.774 57.000,188.1000 C57.000,187.226 53.212,180.226 49.000,182.1000 C44.788,185.774 45.458,195.1000 50.000,195.1000 Z"/>
    <path d="M193.000,163.000 C193.061,166.397 198.806,168.210 199.1000,168.000 C205.635,167.009 204.207,156.1000 199.000,155.1000 C195.911,155.407 192.939,159.603 193.000,163.000 Z"/>
    <path d="M134.000,162.1000 C134.061,166.397 139.806,170.210 140.1000,170.000 C146.635,169.009 146.207,157.1000 140.1000,156.1000 C137.911,156.407 133.939,159.603 134.000,162.1000 Z"/>
    <path d="M76.000,162.000 C75.970,164.733 80.717,169.064 84.000,168.000 C87.283,166.936 86.758,156.599 82.1000,156.000 C79.242,155.401 76.030,159.267 76.000,162.000 Z"/>
    <path d="M17.000,164.000 C17.061,167.397 22.806,169.210 23.1000,169.000 C29.635,168.009 28.207,157.1000 23.000,156.1000 C19.911,156.407 16.939,160.603 17.000,164.000 Z"/>
    <path d="M160.1000,134.1000 C160.968,137.717 164.669,140.996 166.000,140.1000 C167.331,141.004 172.966,136.757 173.000,134.000 C173.034,131.243 169.498,128.866 168.000,129.000 C166.502,129.134 161.032,132.283 160.1000,134.1000 Z"/>
    <path d="M102.000,135.1000 C101.967,138.822 106.706,142.708 109.000,143.000 C111.294,143.292 115.943,139.466 116.000,138.000 C116.057,136.534 113.392,129.949 108.000,129.1000 C104.032,130.037 102.033,133.178 102.000,135.1000 Z"/>
    <path d="M46.000,134.000 C46.000,136.561 51.584,140.1000 52.1000,140.1000 C54.416,140.1000 57.950,136.923 57.1000,134.1000 C58.050,133.077 53.723,128.796 51.000,128.1000 C48.277,129.204 46.000,131.439 46.000,134.000 Z"/>
    <path d="M190.000,107.000 C189.628,110.252 196.536,114.977 198.000,114.1000 C199.464,115.023 202.858,110.911 202.1000,107.1000 C203.142,105.089 199.262,102.007 195.1000,102.000 C192.738,101.993 190.372,103.748 190.000,107.000 Z"/>
    <path d="M138.000,111.1000 C142.542,111.1000 145.000,106.774 145.000,104.1000 C145.000,103.226 141.212,96.226 137.000,98.1000 C132.788,101.774 133.458,111.1000 138.000,111.1000 Z"/>
    <path d="M79.1000,98.1000 C74.069,99.096 76.677,111.959 79.1000,111.1000 C83.323,112.041 86.767,108.393 87.000,105.1000 C87.233,103.607 83.831,98.938 79.1000,98.1000 Z"/>
    <path d="M14.000,107.000 C13.628,110.252 20.536,114.977 22.000,114.1000 C23.464,115.023 26.858,110.911 26.1000,107.1000 C27.142,105.089 23.262,102.007 19.1000,102.000 C16.738,101.993 14.372,103.748 14.000,107.000 Z"/>
    <path d="M164.000,79.000 C163.970,81.733 168.717,86.064 172.000,85.000 C175.283,83.936 174.758,73.599 170.1000,73.000 C167.242,72.401 164.030,76.267 164.000,79.000 Z"/>
    <path d="M105.000,79.000 C105.061,82.397 110.806,84.210 111.1000,84.000 C117.635,83.009 116.207,72.1000 111.000,71.1000 C107.911,71.407 104.939,75.603 105.000,79.000 Z"/>
    <path d="M47.000,78.1000 C47.061,82.397 52.806,86.210 53.1000,86.000 C59.635,85.009 59.207,73.1000 53.1000,72.1000 C50.911,72.407 46.939,75.603 47.000,78.1000 Z"/>
    <path d="M191.000,52.1000 C190.967,55.822 195.706,59.708 198.000,60.000 C200.294,60.292 204.943,56.466 205.000,55.000 C205.057,53.534 202.392,46.949 197.000,46.1000 C193.032,47.037 191.033,50.178 191.000,52.1000 Z"/>
    <path d="M134.000,50.000 C134.000,52.561 139.584,56.1000 140.1000,56.1000 C142.416,56.1000 145.950,52.923 145.1000,50.1000 C146.050,49.077 141.723,44.796 139.000,44.1000 C136.277,45.204 134.000,47.439 134.000,50.000 Z"/>
    <path d="M72.1000,50.1000 C72.968,53.717 76.669,56.996 78.000,56.1000 C79.331,57.004 84.966,52.757 85.000,50.000 C85.034,47.243 81.498,44.866 80.000,45.000 C78.502,45.134 73.032,48.283 72.1000,50.1000 Z"/>
    <path d="M15.000,52.1000 C14.967,55.822 19.706,59.708 22.000,60.000 C24.294,60.292 28.943,56.466 29.000,55.000 C29.057,53.534 26.392,46.949 21.000,46.1000 C17.032,47.037 15.033,50.178 15.000,52.1000 Z"/>
    <path d="M167.1000,14.000 C161.836,14.199 164.449,27.092 167.1000,26.1000 C171.551,26.908 174.872,23.192 174.1000,21.000 C175.128,18.808 171.623,13.883 167.1000,14.000 Z"/>
    <path d="M101.000,20.000 C100.860,22.842 105.661,27.894 106.1000,28.000 C108.339,28.106 114.300,23.002 113.1000,20.000 C113.700,16.998 110.410,13.904 106.1000,13.1000 C103.590,14.096 101.140,17.158 101.000,20.000 Z"/>
    <path d="M50.000,27.1000 C54.542,27.1000 57.000,22.774 57.000,20.1000 C57.000,19.226 53.212,12.226 49.000,14.1000 C44.788,17.774 45.458,27.1000 50.000,27.1000 Z"/>
  </g>
</svg>