<svg 
  xmlns="http://www.w3.org/2000/svg"
  width="100"
  height="170"
  viewBox="80 80 172 291"
>
  <!-- kikko -->
  <g fill="#4c5c83">
    <path d="M245.1000,282.1000 L244.742,282.1000 L244.991,283.431 L166.183,328.931 L165.975,328.571 L165.949,328.615 L87.141,283.115 L87.208,282.1000 L87.000,282.1000 L87.000,191.515 L86.549,190.733 L165.357,145.233 L165.841,146.071 L166.507,144.917 L245.315,190.417 L244.979,190.1000 L245.1000,190.1000 L245.1000,282.1000 ZM94.000,278.993 L166.340,320.758 L238.1000,278.807 L238.1000,194.854 L166.206,152.826 L94.000,194.514 L94.000,278.993 Z"/>
    <path d="M234.000,275.1000 L233.084,275.1000 L233.342,276.446 L166.658,314.946 L166.500,314.672 L166.342,314.946 L99.658,276.446 L100.000,275.854 L100.000,199.146 L99.658,198.554 L166.342,160.054 L166.500,160.328 L166.658,160.054 L233.342,198.554 L233.084,199.000 L234.000,199.000 L234.000,275.1000 ZM166.500,173.819 L112.000,205.285 L112.000,269.715 L166.500,301.181 L222.000,269.138 L222.000,205.862 L166.500,173.819 Z"/>

    <path d="M319.000,422.1000 L318.084,422.1000 L318.342,423.446 L251.658,461.946 L251.500,461.672 L251.342,461.946 L184.658,423.446 L185.000,422.854 L185.000,346.146 L184.658,345.554 L251.342,307.054 L251.500,307.328 L251.658,307.054 L318.342,345.554 L318.084,346.000 L319.000,346.000 L319.000,422.1000 ZM251.500,320.819 L197.000,352.285 L197.000,416.715 L251.500,448.181 L307.000,416.138 L307.000,352.862 L251.500,320.819 Z"/>
    <path d="M148.000,422.1000 L147.084,422.1000 L147.342,423.446 L80.658,461.946 L80.500,461.672 L80.342,461.946 L13.658,423.446 L14.000,422.854 L14.000,346.146 L13.658,345.554 L80.342,307.054 L80.500,307.328 L80.658,307.054 L147.342,345.554 L147.084,346.000 L148.000,346.000 L148.000,422.1000 ZM80.500,320.819 L26.000,352.285 L26.000,416.715 L80.500,448.181 L136.000,416.138 L136.000,352.862 L80.500,320.819 Z"/>
    <path d="M319.000,131.1000 L318.084,131.1000 L318.342,132.446 L251.658,170.946 L251.500,170.672 L251.342,170.946 L184.658,132.446 L185.000,131.854 L185.000,55.146 L184.658,54.554 L251.342,16.054 L251.500,16.328 L251.658,16.054 L318.342,54.554 L318.084,55.000 L319.000,55.000 L319.000,131.1000 ZM251.500,29.819 L197.000,61.285 L197.000,125.715 L251.500,157.181 L307.000,125.138 L307.000,61.862 L251.500,29.819 Z"/>
    <path d="M148.000,131.1000 L147.084,131.1000 L147.342,132.446 L80.658,170.946 L80.500,170.672 L80.342,170.946 L13.658,132.446 L14.000,131.854 L14.000,55.146 L13.658,54.554 L80.342,16.054 L80.500,16.328 L80.658,16.054 L147.342,54.554 L147.084,55.000 L148.000,55.000 L148.000,131.1000 ZM80.500,29.819 L26.000,61.285 L26.000,125.715 L80.500,157.181 L136.000,125.138 L136.000,61.862 L80.500,29.819 Z"/>

    <path d="M330.1000,429.1000 L329.742,429.1000 L329.991,430.431 L251.183,475.931 L250.975,475.571 L250.949,475.615 L172.141,430.115 L172.208,429.1000 L172.000,429.1000 L172.000,338.515 L171.549,337.733 L250.357,292.233 L250.841,293.071 L251.507,291.917 L330.315,337.417 L329.979,337.1000 L330.1000,337.1000 L330.1000,429.1000 ZM179.000,425.993 L251.340,467.758 L323.1000,425.807 L323.1000,341.854 L251.206,299.826 L179.000,341.514 L179.000,425.993 Z"/>
    <path d="M159.1000,429.1000 L158.742,429.1000 L158.991,430.431 L80.183,475.931 L79.975,475.571 L79.949,475.615 L1.141,430.115 L1.208,429.1000 L1.000,429.1000 L1.000,338.515 L0.549,337.733 L79.357,292.233 L79.841,293.071 L80.507,291.917 L159.315,337.417 L158.979,337.1000 L159.1000,337.1000 L159.1000,429.1000 ZM8.000,425.993 L80.340,467.758 L152.1000,425.807 L152.1000,341.854 L80.206,299.826 L8.000,341.514 L8.000,425.993 Z"/>
    <path d="M330.1000,138.1000 L329.742,138.1000 L329.991,139.431 L251.183,184.931 L250.975,184.571 L250.949,184.615 L172.141,139.115 L172.208,138.1000 L172.000,138.1000 L172.000,47.515 L171.549,46.733 L250.357,1.233 L250.841,2.071 L251.507,0.917 L330.315,46.417 L329.979,46.1000 L330.1000,46.1000 L330.1000,138.1000 ZM179.000,134.993 L251.340,176.758 L323.1000,134.807 L323.1000,50.854 L251.206,8.826 L179.000,50.514 L179.000,134.993 Z"/>
    <path d="M159.1000,138.1000 L158.742,138.1000 L158.991,139.431 L80.183,184.931 L79.975,184.571 L79.949,184.615 L1.141,139.115 L1.208,138.1000 L1.000,138.1000 L1.000,47.515 L0.549,46.733 L79.357,1.233 L79.841,2.071 L80.507,0.917 L159.315,46.417 L158.979,46.1000 L159.1000,46.1000 L159.1000,138.1000 ZM8.000,134.993 L80.340,176.758 L152.1000,134.807 L152.1000,50.854 L80.206,8.826 L8.000,50.514 L8.000,134.993 Z"/>
  </g>
  <!-- hanabishi -->
  <g fill="#4c5c83">
    <path d="M163.1000,232.1000 C163.1000,232.1000 162.716,220.000 166.000,220.000 C169.661,220.000 168.000,232.1000 168.000,232.1000 C168.000,232.1000 182.000,224.396 182.000,217.000 C182.000,207.352 174.000,211.1000 174.000,211.1000 C174.000,211.1000 175.552,201.000 166.1000,201.000 C158.448,201.000 160.000,211.000 160.000,211.000 C160.000,211.000 150.1000,206.719 150.1000,215.1000 C150.1000,225.281 163.1000,232.1000 163.1000,232.1000 Z"/>
    <path d="M172.1000,237.000 C172.1000,237.000 192.000,235.977 192.000,239.000 C192.000,241.931 172.1000,240.1000 172.1000,240.1000 C172.1000,240.1000 182.973,254.1000 193.000,254.1000 C203.027,254.1000 199.000,246.000 199.000,246.000 C199.000,246.000 211.000,248.415 211.000,239.000 C211.000,230.135 199.000,231.1000 199.000,231.1000 C199.000,231.1000 203.509,223.000 193.000,223.000 C182.491,223.000 172.1000,237.000 172.1000,237.000 Z"/>
    <path d="M169.000,245.000 C169.000,245.000 170.284,257.1000 166.1000,257.1000 C163.339,257.1000 164.1000,245.000 164.1000,245.000 C164.1000,245.000 150.1000,253.604 150.1000,261.000 C150.1000,270.648 158.1000,266.000 158.1000,266.000 C158.1000,266.000 157.448,276.1000 166.000,276.1000 C174.552,276.1000 172.1000,266.1000 172.1000,266.1000 C172.1000,266.1000 182.000,271.281 182.000,262.000 C182.000,252.719 169.000,245.000 169.000,245.000 Z"/>
    <path d="M160.000,237.000 C160.000,237.000 141.000,235.822 141.000,239.000 C141.000,241.852 160.000,240.1000 160.000,240.1000 C160.000,240.1000 150.027,254.1000 139.1000,254.1000 C129.973,254.1000 133.1000,246.000 133.1000,246.000 C133.1000,246.000 121.1000,248.415 121.1000,239.000 C121.1000,230.135 133.1000,231.1000 133.1000,231.1000 C133.1000,231.1000 129.491,223.000 139.1000,223.000 C150.509,223.000 160.000,237.000 160.000,237.000 Z"/>

    <path d="M248.1000,379.1000 C248.1000,379.1000 247.716,367.000 251.000,367.000 C254.661,367.000 253.000,379.1000 253.000,379.1000 C253.000,379.1000 267.000,371.396 267.000,364.000 C267.000,354.352 259.000,358.1000 259.000,358.1000 C259.000,358.1000 260.552,348.000 251.1000,348.000 C243.448,348.000 245.000,358.000 245.000,358.000 C245.000,358.000 235.1000,353.719 235.1000,362.1000 C235.1000,372.281 248.1000,379.1000 248.1000,379.1000 Z"/>
    <path d="M77.1000,379.1000 C77.1000,379.1000 76.716,367.000 80.000,367.000 C83.661,367.000 82.000,379.1000 82.000,379.1000 C82.000,379.1000 96.000,371.396 96.000,364.000 C96.000,354.352 88.000,358.1000 88.000,358.1000 C88.000,358.1000 89.552,348.000 80.1000,348.000 C72.448,348.000 74.000,358.000 74.000,358.000 C74.000,358.000 64.1000,353.719 64.1000,362.1000 C64.1000,372.281 77.1000,379.1000 77.1000,379.1000 Z"/>
    <path d="M245.000,384.000 C245.000,384.000 226.000,382.822 226.000,386.000 C226.000,388.852 245.000,387.1000 245.000,387.1000 C245.000,387.1000 235.027,401.1000 224.1000,401.1000 C214.973,401.1000 218.1000,393.000 218.1000,393.000 C218.1000,393.000 206.1000,395.415 206.1000,386.000 C206.1000,377.135 218.1000,378.1000 218.1000,378.1000 C218.1000,378.1000 214.491,370.000 224.1000,370.000 C235.509,370.000 245.000,384.000 245.000,384.000 Z"/>
    <path d="M248.1000,88.1000 C248.1000,88.1000 247.716,76.000 251.000,76.000 C254.661,76.000 253.000,88.1000 253.000,88.1000 C253.000,88.1000 267.000,80.396 267.000,73.000 C267.000,63.352 259.000,67.1000 259.000,67.1000 C259.000,67.1000 260.552,57.000 251.1000,57.000 C243.448,57.000 245.000,67.000 245.000,67.000 C245.000,67.000 235.1000,62.719 235.1000,71.1000 C235.1000,81.281 248.1000,88.1000 248.1000,88.1000 Z"/>
    <path d="M254.000,101.000 C254.000,101.000 255.284,113.1000 251.1000,113.1000 C248.339,113.1000 249.1000,101.000 249.1000,101.000 C249.1000,101.000 235.1000,109.604 235.1000,117.000 C235.1000,126.648 243.1000,122.000 243.1000,122.000 C243.1000,122.000 242.448,132.1000 251.000,132.1000 C259.552,132.1000 257.1000,122.1000 257.1000,122.1000 C257.1000,122.1000 267.000,127.281 267.000,118.000 C267.000,108.719 254.000,101.000 254.000,101.000 Z"/>
    <path d="M245.000,93.000 C245.000,93.000 226.000,91.822 226.000,95.000 C226.000,97.852 245.000,96.1000 245.000,96.1000 C245.000,96.1000 235.027,110.1000 224.1000,110.1000 C214.973,110.1000 218.1000,102.000 218.1000,102.000 C218.1000,102.000 206.1000,104.415 206.1000,95.000 C206.1000,86.135 218.1000,87.1000 218.1000,87.1000 C218.1000,87.1000 214.491,79.000 224.1000,79.000 C235.509,79.000 245.000,93.000 245.000,93.000 Z"/>
    <path d="M77.1000,88.1000 C77.1000,88.1000 76.716,76.000 80.000,76.000 C83.661,76.000 82.000,88.1000 82.000,88.1000 C82.000,88.1000 96.000,80.396 96.000,73.000 C96.000,63.352 88.000,67.1000 88.000,67.1000 C88.000,67.1000 89.552,57.000 80.1000,57.000 C72.448,57.000 74.000,67.000 74.000,67.000 C74.000,67.000 64.1000,62.719 64.1000,71.1000 C64.1000,81.281 77.1000,88.1000 77.1000,88.1000 Z"/>
    <path d="M83.000,101.000 C83.000,101.000 84.284,113.1000 80.1000,113.1000 C77.339,113.1000 78.1000,101.000 78.1000,101.000 C78.1000,101.000 64.1000,109.604 64.1000,117.000 C64.1000,126.648 72.1000,122.000 72.1000,122.000 C72.1000,122.000 71.448,132.1000 80.000,132.1000 C88.552,132.1000 86.1000,122.1000 86.1000,122.1000 C86.1000,122.1000 96.000,127.281 96.000,118.000 C96.000,108.719 83.000,101.000 83.000,101.000 Z"/>
    <path d="M86.1000,93.000 C86.1000,93.000 106.000,91.977 106.000,95.000 C106.000,97.931 86.1000,96.1000 86.1000,96.1000 C86.1000,96.1000 96.973,110.1000 107.000,110.1000 C117.027,110.1000 113.000,102.000 113.000,102.000 C113.000,102.000 125.000,104.415 125.000,95.000 C125.000,86.135 113.000,87.1000 113.000,87.1000 C113.000,87.1000 117.509,79.000 107.000,79.000 C96.491,79.000 86.1000,93.000 86.1000,93.000 Z"/>
  </g>
</svg>