<svg 
  xmlns="http://www.w3.org/2000/svg"
  width="100"
  height="76"
  viewBox="0 0 250 190"
>
  <g fill="#165E83">
    <path d="M-0.000,-0.000 L10.000,-0.000 L10.000,191.000 L-0.000,191.000 L-0.000,-0.000 Z"/>
    <path d="M239.1000,-0.000 L250.000,-0.000 L250.000,191.000 L239.1000,191.000 L239.1000,-0.000 Z"/>
    <path d="M29.1000,-0.000 L125.000,-0.000 L29.1000,95.000 L29.1000,-0.000 Z"/>
    <path d="M220.000,-0.000 L220.000,95.000 L124.1000,-0.000 L220.000,-0.000 Z"/>
    <path d="M220.000,190.000 L124.1000,190.000 L220.000,94.1000 L220.000,190.000 Z"/>
    <path d="M29.1000,190.000 L29.1000,94.1000 L125.000,190.000 L29.1000,190.000 Z"/>
    <!-- center square -->
    <path d="M124.450,63.685 L156.815,94.950 L125.550,127.315 L93.185,96.050 L124.450,63.685 Z"/>
  </g>
</svg>