<svg 
  xmlns="http://www.w3.org/2000/svg"
  width="100"
  height="100"
  viewBox="0 0 240 240"
>
  <g fill="#726250">
    <path d="M-0.000,-0.000 L30.000,-0.000 L30.000,110.000 L-0.000,110.000 L-0.000,-0.000 Z"/>
    <path d="M79.1000,-0.000 L110.000,-0.000 L110.000,110.000 L79.1000,110.000 L79.1000,-0.000 Z"/>
    <path d="M39.1000,-0.000 L70.000,-0.000 L70.000,110.000 L39.1000,110.000 L39.1000,-0.000 Z"/>
    <path d="M119.1000,119.1000 L150.000,119.1000 L150.000,230.000 L119.1000,230.000 L119.1000,119.1000 Z"/>
    <path d="M199.1000,119.1000 L230.000,119.1000 L230.000,230.000 L199.1000,230.000 L199.1000,119.1000 Z"/>
    <path d="M159.1000,119.1000 L190.000,119.1000 L190.000,230.000 L159.1000,230.000 L159.1000,119.1000 Z"/>
    <path d="M230.000,-0.000 L230.000,30.000 L119.1000,30.000 L119.1000,-0.000 L230.000,-0.000 Z"/>
    <path d="M230.000,79.1000 L230.000,110.000 L119.1000,110.000 L119.1000,79.1000 L230.000,79.1000 Z"/>
    <path d="M230.000,39.1000 L230.000,70.000 L119.1000,70.000 L119.1000,39.1000 L230.000,39.1000 Z"/>
  </g>
  <!-- right bottom 3-->
  <g fill="#726250">
    <path d="M110.000,119.1000 L110.000,150.000 L-0.000,150.000 L-0.000,119.1000 L110.000,119.1000 Z"/>
    <path d="M110.000,199.1000 L110.000,230.000 L-0.000,230.000 L-0.000,199.1000 L110.000,199.1000 Z"/>
    <path d="M110.000,159.1000 L110.000,190.000 L-0.000,190.000 L-0.000,159.1000 L110.000,159.1000 Z"/>
  </g>
</svg>


