<svg 
  xmlns="http://www.w3.org/2000/svg"
  width="100"
  height="58"
  viewBox="0 0 432 250"
>

  <g fill="#877892">
    <path d="M0.000,49.1000 L0.000,24.1000 L20.1000,13.000 L86.000,50.1000 L43.000,74.1000 L64.000,88.000 L107.1000,63.000 L151.000,88.000 L171.1000,75.1000 L43.000,-0.000 L86.000,-0.000 L215.000,75.1000 L151.000,113.000 L107.1000,88.000 L87.000,100.1000 L128.1000,125.1000 L86.000,150.1000 L107.1000,163.000 L388.1000,-0.000 L432.1000,-0.000 L107.1000,189.000 L43.000,150.1000 L85.000,125.1000 L64.000,113.000 L20.1000,138.000 L0.000,126.1000 L0.000,100.1000 L20.1000,111.000 L43.000,99.1000 L0.000,74.1000 L43.000,49.1000 L20.1000,39.000 L0.000,49.1000 Z"/>
    <path d="M433.000,126.000 L435.000,101.1000 L409.1000,87.1000 L345.1000,126.000 L434.000,177.000 L435.000,152.1000 L389.000,126.000 L409.1000,114.000 L433.000,126.000 Z"/>
    <path d="M258.1000,251.000 L215.1000,251.000 L258.1000,226.000 L237.000,214.000 L194.000,239.000 L130.000,201.000 L432.1000,24.1000 L432.1000,49.1000 L173.000,201.000 L194.000,214.000 L237.000,189.000 L281.000,214.000 L302.1000,201.000 L258.1000,176.000 L324.000,138.000 L432.1000,201.000 L432.1000,226.000 L324.000,164.000 L302.1000,176.000 L345.1000,201.000 L302.1000,226.000 L324.1000,239.000 L368.000,214.000 L432.1000,251.000 L388.1000,251.000 L368.000,239.000 L345.1000,251.000 L302.1000,251.000 L281.000,239.000 L258.1000,251.000 Z"/>
    <path d="M0.000,176.000 L0.000,150.1000 L172.1000,251.000 L129.1000,251.000 L0.000,176.000 Z"/>
    <path d="M129.000,-0.000 L172.000,-0.000 L237.1000,38.1000 L258.1000,25.000 L216.000,-0.000 L258.1000,-0.000 L302.1000,25.000 L236.1000,64.000 L129.000,-0.000 Z"/>
    <path d="M0.000,226.000 L0.000,201.000 L85.1000,250.1000 L43.000,250.1000 L0.000,226.000 Z"/>
    <path d="M300.1000,-0.000 L347.000,-0.000 L322.1000,14.000 L300.1000,-0.000 Z"/>
  </g>
</svg>