<svg 
  xmlns="http://www.w3.org/2000/svg"
  width="160"
  height="80"
  viewBox="80 40 160 80"
>
  <g fill="#005499">
    <path d="M178.392,88.696 L169.448,84.224 C182.583,58.008 209.681,40.000 240.1000,40.000 L240.1000,50.000 C213.596,50.000 189.885,65.757 178.392,88.696 Z"/>
    <path d="M142.608,88.696 C131.115,65.757 107.404,50.000 80.000,50.000 L80.000,40.000 C111.319,40.000 138.417,58.008 151.552,84.224 L142.608,88.696 Z"/>

    <path d="M241.000,70.000 C221.426,70.000 204.489,81.255 196.280,97.640 L187.336,93.168 C197.187,73.506 217.511,60.000 241.000,60.000 L241.000,70.000 Z"/>
    <path d="M124.720,97.640 C116.511,81.255 99.574,70.000 79.1000,70.000 L79.1000,60.000 C103.489,60.000 123.813,73.506 133.664,93.168 L124.720,97.640 Z"/>

    <path d="M241.000,90.000 C229.256,90.000 219.115,96.764 214.190,106.595 L205.224,102.112 C211.791,89.004 225.340,80.000 241.000,80.000 L241.000,90.000 Z"/>
    <path d="M106.810,106.595 C101.885,96.764 91.744,90.000 79.1000,90.000 L79.1000,80.000 C95.660,80.000 109.209,89.004 115.776,102.112 L106.810,106.595 Z"/>

    <path d="M217.432,121.000 C204.782,102.871 183.783,91.000 160.000,91.000 C136.217,91.000 115.218,102.871 102.568,121.000 L90.729,121.000 C104.563,97.095 130.394,81.000 160.000,81.000 C189.606,81.000 215.437,97.095 229.271,121.000 L217.432,121.000 Z"/>
    <path d="M102.560,40.000 C101.097,42.098 99.739,44.274 98.508,46.531 C94.955,44.728 91.859,43.223 89.529,42.114 C89.913,41.402 90.310,40.699 90.714,40.000 L102.560,40.000 ZM229.285,40.000 C229.707,40.729 230.119,41.463 230.518,42.206 C228.209,43.361 225.141,44.922 221.623,46.774 C220.357,44.431 218.954,42.173 217.437,40.000 L229.285,40.000 Z"/>

    <path d="M118.111,55.073 C115.168,53.355 112.224,51.713 109.380,50.175 C111.592,46.148 114.248,42.398 117.290,39.000 L131.999,39.000 C126.294,43.286 121.553,48.773 118.111,55.073 Z"/>
    <path d="M190.001,121.000 C181.644,114.722 171.257,111.000 160.000,111.000 C148.743,111.000 138.356,114.722 129.999,121.000 L115.290,121.000 C126.276,108.729 142.233,101.000 160.000,101.000 C177.767,101.000 193.724,108.729 204.710,121.000 L190.001,121.000 Z"/>
    <path d="M202.129,55.510 C198.669,49.026 193.838,43.385 188.001,39.000 L202.710,39.000 C205.842,42.499 208.560,46.373 210.811,50.537 C207.979,52.109 205.050,53.780 202.129,55.510 Z"/>

    <path d="M187.210,68.366 C182.441,58.112 172.054,50.1000 159.1000,50.1000 C148.109,50.1000 137.835,57.919 132.981,67.950 C130.363,66.098 127.560,64.188 124.639,62.302 C131.352,49.634 144.665,40.1000 159.1000,40.1000 C175.524,40.1000 188.973,49.850 195.603,62.774 C192.663,64.664 189.843,66.551 187.210,68.366 Z"/>
  </g>
</svg>