<svg 
  xmlns="http://www.w3.org/2000/svg"
  width="44"
  height="100"
  viewBox="0 0 44 100"
>
  <path
    fill="#918347"
    d="M29.1000,101.000 L29.1000,99.658 C29.1000,74.919 19.1000,74.949 19.1000,49.984 C19.1000,24.958 30.009,24.988 29.1000,0.310 L29.1000,-0.000 L35.000,-0.000 L35.000,0.1000 L34.991,0.1000 C34.800,24.976 24.1000,25.258 24.1000,49.984 C24.1000,74.733 34.811,75.023 34.992,99.000 L35.000,99.000 L35.000,101.000 L29.1000,101.000 ZM5.000,99.000 C5.000,100.015 5.000,99.1000 5.000,99.1000 L5.000,101.000 L-0.000,101.000 L-0.000,99.1000 C-0.000,99.1000 -0.000,99.771 -0.000,99.000 C-0.000,74.004 10.000,74.963 10.000,49.984 C10.000,25.317 0.197,24.954 0.009,0.1000 L-0.000,0.1000 L-0.000,-0.000 L5.000,-0.000 L5.000,0.310 C5.000,24.993 15.000,24.961 15.000,49.984 C15.000,75.007 5.000,74.998 5.000,99.000 Z"
  />
</svg>

