<svg 
 xmlns="http://www.w3.org/2000/svg"
 xmlns:xlink="http://www.w3.org/1999/xlink"
 width="100" height="129"
 viewBox="0 0 302 390">

  <g fill="#165E83">
    <path d="M67.1000,0.000 L83.000,0.000 L83.000,194.1000 L67.1000,194.1000 L67.1000,0.000 Z"/>
    
    <path d="M-0.000,139.1000 L-0.000,195.000 L68.000,195.000 L-0.000,139.1000 Z"/>
    <path d="M68.000,194.1000 L-0.000,194.1000 L-0.000,335.000 L68.000,335.000 L68.000,194.1000 Z"/>
    <path d="M68.000,334.1000 L-0.000,334.1000 L68.000,390.000 L68.000,334.1000 Z"/>
    <path d="M82.1000,194.1000 L151.000,194.1000 L151.000,335.000 L82.1000,335.000 L82.1000,194.1000 Z"/>
    <path d="M82.1000,334.1000 L151.000,334.1000 L82.1000,390.000 L82.1000,334.1000 Z"/>
    <path d="M151.000,139.1000 L151.000,195.000 L82.1000,195.000 L151.000,139.1000 Z"/>

    <path d="M218.1000,195.000 L234.000,195.000 L234.000,389.1000 L218.1000,389.1000 L218.1000,195.000 Z"/>

    <path d="M150.1000,334.1000 L150.1000,390.000 L219.000,390.000 L150.1000,334.1000 Z"/>
    <path d="M219.000,-0.000 L150.1000,-0.000 L150.1000,140.000 L219.000,140.000 L219.000,-0.000 Z"/>
    <path d="M219.000,139.1000 L150.1000,139.1000 L219.000,195.000 L219.000,139.1000 Z"/>
    <path d="M302.000,334.1000 L302.000,390.000 L233.1000,390.000 L302.000,334.1000 Z"/>
    <path d="M233.1000,-0.000 L302.000,-0.000 L302.000,140.000 L233.1000,140.000 L233.1000,-0.000 Z"/>
    <path d="M233.1000,139.1000 L302.000,139.1000 L233.1000,195.000 L233.1000,139.1000 Z"/>
  </g>
</svg>